<?xml version="1.0" encoding="UTF-8" standalone="no"?>
<!-- Created with Inkscape (http://www.inkscape.org/) -->

<svg
   width="61.85767mm"
   height="40.363239mm"
   viewBox="0 0 61.85767 40.36324"
   version="1.1"
   id="svg5"
   inkscape:version="1.1.1 (3bf5ae0d25, 2021-09-20)"
   sodipodi:docname="404-not-found_master.svg"
   xmlns:inkscape="http://www.inkscape.org/namespaces/inkscape"
   xmlns:sodipodi="http://sodipodi.sourceforge.net/DTD/sodipodi-0.dtd"
   xmlns="http://www.w3.org/2000/svg"
   xmlns:svg="http://www.w3.org/2000/svg">
  <sodipodi:namedview
     id="namedview7"
     pagecolor="#ffffff"
     bordercolor="#666666"
     borderopacity="1.0"
     inkscape:pageshadow="2"
     inkscape:pageopacity="0.0"
     inkscape:pagecheckerboard="0"
     inkscape:document-units="mm"
     showgrid="false"
     fit-margin-top="0"
     fit-margin-left="0"
     fit-margin-right="0"
     fit-margin-bottom="0"
     inkscape:snap-page="true"
     inkscape:zoom="3.1108586"
     inkscape:cx="55.45093"
     inkscape:cy="107.20513"
     inkscape:window-width="2560"
     inkscape:window-height="1361"
     inkscape:window-x="2551"
     inkscape:window-y="-9"
     inkscape:window-maximized="1"
     inkscape:current-layer="layer1" />
  <defs
     id="defs2" />
  <g
     inkscape:label="Ebene 1"
     inkscape:groupmode="layer"
     id="layer1"
     transform="translate(-43.851529,-59.458078)">
    <text
       xml:space="preserve"
       style="font-style:normal;font-weight:normal;font-size:10.5833px;line-height:1.25;font-family:sans-serif;fill:#000000;fill-opacity:1;stroke:none;stroke-width:0.264583"
       x="77.501892"
       y="68.381447"
       id="text3026"
       inkscape:label="textSeiteNichtGefunden"><tspan
         sodipodi:role="line"
         id="tspan3024"
         style="font-style:normal;font-variant:normal;font-weight:normal;font-stretch:normal;font-size:17.6389px;font-family:'Hey August';-inkscape-font-specification:'Hey August';text-align:center;text-anchor:middle;stroke-width:0.264583"
         x="77.501892"
         y="68.381447" /><tspan
         sodipodi:role="line"
         style="font-style:normal;font-variant:normal;font-weight:normal;font-stretch:normal;font-family:'Hey August';-inkscape-font-specification:'Hey August';text-align:center;text-anchor:middle;stroke-width:0.264583"
         x="77.501892"
         y="84.075516"
         id="tspan18608">Motivation Seite</tspan><tspan
         sodipodi:role="line"
         style="font-style:normal;font-variant:normal;font-weight:normal;font-stretch:normal;font-family:'Hey August';-inkscape-font-specification:'Hey August';text-align:center;text-anchor:middle;stroke-width:0.264583"
         x="77.501892"
         y="97.354134"
         id="tspan18612">nicht gefunden</tspan></text>
    <path
       style="opacity:1;vector-effect:non-scaling-stroke;fill:#d40000;stroke-width:0.000277028;-inkscape-stroke:hairline"
       id="path38131"
       d="m 47.216352,83.39283 c 0.05092,-0.03406 0.09933,-0.07073 0.152768,-0.102194 0.214813,-0.12651 0.910147,-0.444515 0.681835,-0.33442 -3.252104,1.568235 -3.132573,1.386302 -1.801665,0.936337 0.218675,-0.07394 0.440399,-0.141861 0.660599,-0.212793 2.103683,-0.656436 4.339161,-0.973745 6.544703,-1.320339 1.811899,-0.284793 3.638647,-0.499215 5.463052,-0.723087 2.199584,-0.269911 2.879692,-0.374071 5.155863,-0.588728 1.027614,-0.09691 2.058061,-0.173225 3.087092,-0.259835 4.883547,-0.359304 9.787648,-0.499985 14.689835,-0.538721 1.99667,-0.01577 3.533607,-0.0053 5.495151,0.0021 0,0 2.055594,-1.21096 2.055594,-1.21096 v 0 c -2.578316,0.124976 -3.191721,0.165961 -5.91242,0.245113 -4.821485,0.140269 -9.650003,0.129749 -14.465691,0.391157 -0.988952,0.06063 -1.978804,0.112388 -2.966859,0.18187 -3.424351,0.240809 -6.836177,0.589119 -10.2242,1.057025 -1.253042,0.160609 -1.608953,0.199161 -2.807627,0.377752 -0.933216,0.13904 -1.880294,0.283984 -2.788365,0.511305 -0.225298,0.05641 -0.444026,0.128612 -0.66604,0.192918 -0.07941,0.02421 -1.166204,0.352411 -1.261714,0.393474 -1.179284,0.507009 -2.338785,1.04341 -3.502559,1.573184 -0.345371,0.157219 -0.680202,0.337608 -0.954174,0.570738 0,0 3.364822,-1.141892 3.364822,-1.141892 z"
       inkscape:label="durchgestrichen" />
    <text
       xml:space="preserve"
       style="font-style:normal;font-weight:normal;font-size:10.5833px;line-height:1.25;font-family:sans-serif;fill:#000000;fill-opacity:1;stroke:none;stroke-width:0.264583"
       x="54.786007"
       y="71.523087"
       id="text3026-8"
       inkscape:label="text404"><tspan
         sodipodi:role="line"
         style="font-style:normal;font-variant:normal;font-weight:normal;font-stretch:normal;font-size:17.6389px;font-family:'Hey August';-inkscape-font-specification:'Hey August';text-align:center;text-anchor:middle;stroke-width:0.264583"
         x="54.786007"
         y="71.523087"
         id="tspan18612-2">404</tspan></text>
  </g>
</svg>
