<svg version="1.1" viewBox="0 0 23 11.6" xmlns="http://www.w3.org/2000/svg"><g transform="translate(-127 -77.6)"><g transform="translate(118 22)" stroke-width=".265" aria-label="404" fill="currentColor"><path d="m15.1 61.4c0.194 0.0882 0.194-0.459 0-0.37 0.0706 0.194 0 0.141 0 0.37zm-0.582 1.57c0 0.0529-0.0353 0.106-0.0706 0.159h0.141c0.0353 0 0.0706-0.0176 0.0529-0.0706-0.0706 0-0.0529-0.0882-0.123-0.0882zm-0.0706 1.66c0-0.0706 0.123-0.0529 0.141-0.123-0.106 0-0.0353-0.159-0.141-0.176 0.0176 0.176-0.265 0.229 0 0.3zm1.5 0.494c-0.0706 0-0.0706-0.0529-0.141-0.0706-0.0529 0-0.0353 0.0706-0.0529 0.0706-0.123 0.0176 0-0.106 0-0.123-0.0353-0.0353-0.194 0.0529-0.194 0.0529-0.0353-0.3 0.0706-0.547 0.123-0.794 0.0529-0.212 0.0882-0.564 0.194-0.635 0.0353-0.0353-0.0529-0.0882-0.0706-0.0706 0.0176-0.0706 0.0529-0.106 0.0706-0.176 0.0529-0.194 0.159-0.406 0.194-0.529 0.0706-0.247 0.123-0.37 0.0706-0.547 0.123-0.0882 0.3-0.123 0.441-0.194 0.0176-0.176-0.0353-0.0353-0.123-0.123-0.0529-0.0529-0.123-0.0706-0.141-0.229 0.194-0.353 0.282-0.882 0.406-1.15v-0.0529c0-0.0529 0.0529-0.0353 0.0529-0.0529 0.0353-0.0882 0.0529-0.212 0.0706-0.3 0.0706-0.212 0.159-0.388 0.123-0.617 0.229 0 0.0529-0.353 0.265-0.353 0.0176-0.176 0.0176-0.353 0.0706-0.547 0-0.0176 0.123-0.0882 0.141-0.123 0.0353-0.0706 0.0353-0.176 0.0529-0.229 0.0176-0.0882 0.0176-0.141 0.0529-0.194 0.0176-0.0353 0.0706-0.0706 0.0706-0.106 0-0.0529 0.0529-0.0353 0.0529-0.0529 0.0353-0.0882-0.0176-0.212 0-0.3 0 0 0.0706-0.0353 0.0706-0.0706 0.0176-0.0176 0-0.0353 0-0.0529 0-0.0706 0.0529-0.0353 0.0706-0.0706 0.0529-0.123 0.106-0.247 0.123-0.3 0.0176-0.0176 0-0.0529 0-0.0706 0.0176-0.0529 0.0529-0.0353 0.0706-0.0529 0.0706-0.176 0.141-0.441 0.194-0.529 0.123-0.159-0.0176-0.159 0-0.37-0.318-0.0176-0.3-0.0176-0.529-0.176 0.0353 0.0529-0.0353 0.0353-0.0529 0.0529-0.159 0.159 0-0.265-0.123-0.0529-0.0882 0-0.0529-0.106-0.123-0.123-0.0176 0.0882-0.159 0.0529-0.265 0.0529 0.123-0.212-0.141-0.212-0.335-0.229 0 0.247-0.0353 0-0.123 0-0.0353 0.106-0.123 0.194-0.194 0.3-0.0353 0.0529-0.106 0.0706-0.141 0.123-0.0353 0.0706-0.0176 0.159-0.0353 0.247-0.0353 0.0353-0.0529-0.0176-0.0706 0.0529-0.0529 0.176-0.0706 0.141-0.141 0.247-0.0353 0.0882-0.123 0.229-0.123 0.282 0 0.0706-0.0529 0.0353-0.0706 0.0706-0.0529 0.106-0.0706 0.229-0.123 0.353-0.0529 0.123-0.141 0.247-0.194 0.37-0.0882 0.194-0.141 0.388-0.212 0.529-0.0176 0.0706-0.0176 0.141-0.0529 0.247-0.0176 0.0176-0.123 0.0882-0.141 0.123-0.0706 0.141-0.0353 0.194-0.0529 0.3-0.0353 0.106-0.0882 0.212-0.123 0.3-0.0706 0.176-0.141 0.406-0.194 0.529-0.0353 0.0882-0.0353 0.141-0.0706 0.247-0.0353 0.123-0.106 0.194-0.123 0.247-0.0176 0.0353 0 0.0882 0 0.123-0.0529 0.159-0.176 0.388-0.194 0.476-0.0882 0.265-0.106 0.512-0.265 0.67-0.776 0.0706-1.48 0.229-2.28 0.282 0.0529-0.123 0.141-0.176 0.212-0.229 0.0176-0.0176-0.0176-0.106 0-0.123 0.0353-0.0529 0.141-0.0706 0.194-0.123 0.0176-0.0176-0.0176-0.0882 0-0.123 0-0.0176 0.106-0.0353 0.123-0.0529 0.0529-0.0529 0.0176-0.123 0.0706-0.176 0.0176-0.0176 0.106-0.0529 0.123-0.0706 0.0353-0.0176-0.0176-0.106 0-0.123 0.0706-0.106 0.229-0.194 0.318-0.282 0.0882-0.106 0.0882-0.159 0.123-0.247 0.0176-0.0176 0.123-0.0353 0.141-0.0529 0.0176-0.0353-0.0176-0.106 0-0.123 0-0.0176 0.106-0.0529 0.123-0.0706 0.0529-0.0529 0.0882-0.123 0.141-0.176 0.123-0.159 0.229-0.3 0.318-0.423 0.0882-0.106 0.106-0.106 0.194-0.176 0.0176-0.0176-0.0176-0.0882 0-0.123 0.0176-0.0353 0.0882-0.0706 0.123-0.106 0.106-0.141 0.176-0.194 0.265-0.247 0.0176-0.0176-0.0176-0.106 0-0.123 0.0353-0.0529 0.0176-0.0353 0.0706-0.0706 0.0529-0.0353 0-0.0529 0.0529-0.123 0.0353-0.0353 0.106-0.0706 0.141-0.106 0.123-0.159 0.229-0.353 0.318-0.423 0.106-0.0706 0.159-0.159 0.194-0.229 0.0176-0.0353-0.0176-0.0882 0-0.123 0-0.0176 0.106-0.0353 0.123-0.0706 0.0176-0.0176 0.0706-0.106 0.0706-0.123 0-0.0882 0.123-0.0882 0.123-0.176 0-0.0706 0.0529-0.0353 0.0706-0.0706 0.141-0.212 0.423-0.512 0.265-0.829-0.0529-0.0882-0.3-0.123-0.335-0.123-0.0882 0-0.0882-0.106-0.123-0.123-0.0353 0-0.106 0.0529-0.0706 0.0706-0.194-0.0706-0.335-0.247-0.706-0.194 0.0176-0.247-0.318-0.194-0.459-0.282 0 0.0529-0.0706 0.0529-0.0706 0.106 0 0.106-0.159 0.335-0.176 0.37-0.0353 0.0353-0.0353 0.0706-0.0706 0.123-0.0529 0.0706-0.141 0.106-0.194 0.176-0.0176 0.0176-0.0529 0.106-0.0706 0.123 0 0.106-0.141 0.141-0.194 0.176-0.0176 0.0176 0.0176 0.106 0 0.123-0.0706 0.0706-0.194 0.0882-0.194 0.176 0 0.0882-0.0706 0.0176-0.123 0.0529-0.0353 0.0353-0.0353 0.159-0.0706 0.176-0.0529 0.0529-0.0882 0.123-0.141 0.194 0 0 0.0176 0.0529 0 0.0529 0 0.0176-0.106-0.0176-0.123 0-0.0176 0.0353 0.0176 0.0882 0 0.123 0 0.0176-0.0882 0.0353-0.106 0.0706-0.0706 0.0706-0.0706 0.159-0.141 0.229-0.0176 0.0353-0.106 0.0529-0.123 0.0706-0.0353 0.0176 0.0176 0.106 0 0.123-0.0529 0.0353-0.159 0.106-0.194 0.159-0.0529 0.0706-0.0882 0.123-0.141 0.176-0.0529 0.0882-0.141 0.123-0.194 0.194-0.0882 0.106-0.0706 0.194-0.141 0.3 0 0.0176-0.106 0.0353-0.123 0.0706-0.0529 0.0529-0.0706 0.123-0.106 0.176-0.0529 0.0706-0.141 0.106-0.212 0.159-0.0353 0.0529 0.0176 0.123-0.0529 0.123-0.106 0-0.159 0.265-0.194 0.3-0.0882 0.106-0.194 0.106-0.212 0.194 0 0.0706-0.0353 0.0176-0.0529 0.0529-0.0882 0.123-0.141 0.229-0.212 0.318-0.0529 0.0706-0.141 0.106-0.194 0.176-0.0706 0.106-0.141 0.282-0.247 0.406 0 0.0176-0.0353 0.0353-0.0529 0.0706-0.0882 0.123-0.106 0.159-0.194 0.229-0.0353 0.0176-0.0529 0.176-0.0706 0.194-0.106 0.141-0.141 0.229-0.194 0.353-0.0353 0.0882-0.0529 0.141-0.0706 0.229 0 0 0.0706 0.0176 0.0706 0.0706 0 0.0176-0.106 0.0353-0.0706 0.123l0.123 0.0529c0.0353 0.0176-0.0176 0.106 0 0.123 0.0529 0.0529 0.265 0.229 0.212 0.176 0.0176 0.0353 0.265 0.0353 0.388 0.0706 0.0882 0.0353 0.212 0.0882 0.3 0.123 0.265 0.0706 0.529 0.212 0.723 0.247 0.247 0.0176 0.582 0.0176 0.847 0 0.0882-0.0176 0.123-0.0529 0.194-0.0706 0.353-0.0529 0.635-0.0176 0.9-0.0529v-0.0706c0.0176-0.0176 0.106 0 0.141 0 0.212-0.0529 0.423-0.0882 0.635-0.123-0.3 0.952-0.476 2.2-0.635 3.25-0.0529 0.335-0.0353 0.494 0 0.723 0.0706 0.0176 0.141 0.0176 0.123 0.106 0.159 0.0176 0.265 0.123 0.388 0-0.0353 0.176 0.212 0.141 0.318 0.176 0.0353 0.0176 0 0.0529 0.0706 0.0706 0.0882 0.0176 0.141 0.0176 0.194 0.0529 0.106 0.106 0.353 0.141 0.459 0.0706 0.0706 0.0882 0.176 0.141 0.265 0.0529 0.123-0.0882 0.106-0.212 0.176-0.353 0.0529-0.123 0.123-0.194 0.123-0.353 0.0176-0.0706 0.0529-0.0353 0.0706-0.0706 0.0529-0.0882 0.123-0.247 0.141-0.3 0-0.106 0.106-0.194 0.123-0.3 0.0176-0.0353 0.0706-0.0529 0.0706-0.0706 0.0176-0.0529-0.106-0.106 0-0.123 0.0529 0 0.0529-0.0529 0.0529-0.106 0.0176-0.141 0.212-0.194 0.141-0.353zm-0.723-4.52c0 0.0176 0.159 0.265 0 0.37 0.0882-0.0353 0.106-0.123 0.194-0.123-0.123-0.0882 0-0.141 0-0.247 0-0.0353 0.0529-0.0706 0.0706-0.106 0.0353-0.0706 0.0353-0.282 0.194-0.247-0.0353-0.247-0.0353-0.176 0-0.423 0.247 0.0529 0.0529-0.282 0.265-0.247 0.0529-0.0706-0.0706-0.106-0.0706-0.123 0-0.0706 0.123-0.0706 0.141-0.123 0.0176-0.0176-0.0353-0.123 0-0.159 0 0 0.176-0.0176 0.123-0.0706 0 0-0.0706 0.0176-0.0706 0s0.0882-0.176 0.141-0.176c-0.106-0.123 0-0.0706 0-0.247 0.159-0.106 0.106 0.282 0.176 0.0706 0.106 0.0176 0.0353 0.335-0.106 0.3 0.0176 0.0353 0.0529 0.512-0.141 0.476-0.0529 0.0706 0.0706 0.176 0.0706 0.176-0.0176 0.0706-0.106 0.0176-0.141 0.0529-0.0176 0.0353 0.0176 0.0882 0 0.123 0 0.0529-0.0353 0.106-0.0529 0.194-0.0176 0.0529-0.0529 0.106-0.0706 0.176-0.0176 0.0529-0.0529 0.106-0.0706 0.176-0.0176 0.0529-0.0529 0.0529-0.0706 0.0706-0.0176 0.0706 0.0353 0.159 0 0.229 0 0.0176-0.0529 0-0.0529 0.0529 0 0.0706-0.0706 0.229-0.265 0.194 0 0.0706 0.123 0.0353 0.194 0.0529-0.159 0.318-0.212 0.741-0.459 0.952 0.194 0.176-0.0882 0.159 0 0.423 0.0176 0.0706 0.0706 0.194-0.123 0.247 0.0176 0.0529 0.0529 0.106 0.123 0.123-0.0353 0.0882-0.0882-0.0176-0.176 0 0 0.106 0.0353 0.123 0.0529 0.247 0-0.0176-0.106 0.0176-0.0529 0.0353 0.0882 0.0882-0.0176 0.0353-0.141 0.123-0.0176 0.0353 0.106 0.0706 0.0706 0 0.212 0.0176-0.123 0.282 0.0706 0.247-0.159 0.0882-0.0176 0.494-0.265 0.494 0.159 0.176 0 0.423-0.141 0.529 0.123 0.194 0 0.247 0.0706 0.476-0.0529 0-0.0706-0.0529-0.123-0.0529-0.0176 0.0529 0.0176 0.0529 0.0529 0.0529-0.0529 0.212-0.123-0.0529-0.194-0.0529 0.0353-0.0882 0.212-0.0529 0.141-0.247-0.123 0-0.141 0.0706-0.265 0.0706-0.0176 0.106 0.106 0.159 0 0.176-0.229 0.0353-0.106-0.123-0.0706-0.176-0.247-0.0529-0.123 0.318 0.0706 0.229-0.0176 0.0706 0.0176 0.141 0 0.194-0.0176 0.0529-0.0529 0.106-0.0706 0.176 0 0.0353-0.0706 0.0706-0.0706 0.0706 0 0.0706 0.106 0.0176 0.141 0.0529 0.0353 0.0529-0.176 0.176-0.0706 0.282-0.229-0.123 0 0.0353-0.123 0.0706-0.123 0.0176-0.141-0.0529-0.0706-0.0706-0.141-0.0882-0.194-0.318 0-0.406-0.0529-0.0882-0.106 0.0176-0.247-0.0529 0-0.0706 0.0706-0.0529 0.123-0.0706 0.0353-0.0706-0.0706-0.0882-0.0706-0.123-0.0176-0.0706 0.0529-0.0353 0.0706-0.0529 0-0.0176-0.0882-0.0882-0.0706-0.123 0.123-0.123-0.0529-0.123 0.0706-0.3 0.0882-0.141-0.0882-0.212 0.123-0.353-0.0353-0.123-0.0706-0.353 0-0.494l0.123-0.0529c0.0176-0.0353-0.0706-0.141-0.0529-0.247 0-0.0176 0.0176-0.265 0.0529-0.3h0.0706c0.0176-0.0529-0.0529-0.123-0.0706-0.106 0.0176-0.0353 0.159-0.159 0.141-0.176 0-0.0176-0.0706 0-0.0706 0 0.0176-0.0353 0.0353-0.159 0.0706-0.194 0-0.0176 0.123-0.0529 0.123-0.0529 0.0353-0.0706-0.0529-0.0353-0.0529-0.0706 0 0.0353 0.0176-0.194 0.0529-0.3 0.0176-0.0176 0.176-0.159 0.141-0.176-0.0706-0.0706-0.0353-0.0529 0.0529-0.0706-0.123-0.212 0.141-0.176 0-0.406 0.194 0.0176 0.106-0.247 0.141-0.3 0-0.0176 0.123 0.0176 0.123 0 0.0353-0.0706-0.123-0.106-0.123-0.123 0-0.0529 0.194-0.194 0.194-0.176 0.0176-0.0529-0.123-0.159 0.0706-0.123-0.0706-0.0882 0.0529-0.176 0.0529-0.194 0-0.0706-0.123-0.141 0-0.282 0-0.0176 0.159-0.0882 0.123-0.123-0.141-0.123 0.141-0.106 0.0706-0.176h-0.0706c0.0353-0.123 0.212-0.212 0.123-0.37 0.0882-0.0706 0.106-0.0176 0.212 0-0.0706-0.0529-0.0529-0.159-0.141-0.176 0.0529-0.0529 0.0706-0.141 0.0706-0.229 0.123 0.0176 0.0706-0.141 0.123-0.194 0.0882-0.0529 0.0706-0.141 0.141-0.229 0.0353-0.0706 0.0353-0.106 0.0529-0.194 0.0176-0.0353 0.0706-0.0353 0.0706-0.0529 0.0176-0.0706-0.0176-0.176 0-0.247 0.0176-0.0176 0.0706 0 0.0706-0.0529 0-0.0353 0.0529-0.0882 0.0706-0.123 0.0176-0.0529 0.0176-0.159 0.0529-0.229 0.0353-0.0353 0.0882 0.0353 0.0706 0.0529 0 0.0176 0.106-0.0176 0.0706-0.0529-0.0529-0.0353-0.0706-0.0882-0.0706-0.194 0.0882-0.0353 0.123-0.123 0.141-0.229 0.141 0.141 0.123 0.441-0.0706 0.582-0.0882 0.512-0.229 0.97-0.529 1.27-0.0353 0.123 0.0529 0.229 0 0.353 0 0.0176-0.212 0.123-0.123 0.194h0.0529c0 0.0353-0.0353 0.176-0.0529 0.247-0.0176 0.0176-0.123 0.0353-0.141 0.0529-0.0176 0.0529 0.0176 0.141 0 0.176 0 0.0176-0.0529 0.0176-0.0706 0.0706 0 0.0706-0.106 0.0706-0.123 0.106zm1.29-1.92c-0.123 0.0353-0.159-0.0353-0.229-0.0529 0.0176-0.0706 0.0529-0.123 0.176-0.123-0.0882-0.0882-0.176-0.123-0.0706-0.247 0.0706 0.0176 0.0353 0.0706 0 0.0706 0.0529 0.106 0.123 0 0.194 0 0-0.318 0.106-0.423 0.265-0.723 0.0706 0.0176 0.0353 0.0706 0 0.0706 0.0176 0.0529 0.0882 0.0882 0 0.229-0.0176 0.0353-0.123 0.106-0.123 0.123-0.0353 0.0706 0.0176 0.159 0 0.229-0.0176 0.0176-0.176 0.0882-0.141 0.123h0.0706c0 0.123-0.194 0.212-0.141 0.3zm-1.02 0.123c-0.212-0.0529 0.0706-0.123 0.0706-0.176 0.176 0.0353-0.106 0.0882-0.0706 0.176zm-0.388 0.776c0.0882-0.0353-0.0176-0.282 0.194-0.247-0.106 0.0529 0.0176 0.3-0.194 0.247zm0 0.176c0-0.0353-0.0353-0.0529-0.0529-0.0529 0.194-0.229 0.106 0.37-0.0706 0.123 0-0.0529 0.0882-0.0529 0.123-0.0706zm-0.388 0.67c0.0882 0.0353 0.106 0.123 0.194 0.123-0.0176 0.141-0.247 0.0176-0.194-0.123zm0.265 0.0706c-0.247 0.0529-0.159-0.617 0.0706-0.547 0.0529 0.194-0.106 0.141-0.141 0.247-0.0529 0.159 0.106 0.159 0.0706 0.3zm-0.194 0.353c-0.194 0-0.212-0.176-0.141-0.247 0.123 0.0176 0.159 0.106 0.141 0.247zm-0.265 0.3c-0.0176-0.159 0.0176-0.265 0.194-0.247-0.106 0.0529 0.0176 0.3-0.194 0.247zm0.123 0.0529c0.0176 0.176-0.476-0.0176-0.123 0h0.123zm-0.0529 0.318c-0.141 0.212-0.335-0.265 0-0.194 0.0176 0.106-0.123 0.159 0 0.194zm-0.265 0.459c-0.194-0.0706 0.0706-0.194 0-0.335 0.0176 0 0.106-0.0353 0.123 0 0.0529 0.0353-0.0529 0.0529-0.0529 0.0529 0.0176 0.159 0.0706 0.123-0.0706 0.282zm-0.194 0.247c0.0706 0.0176 0.106-0.0176 0.123-0.0529 0.265 0.106-0.141 0.106-0.0706 0.176h0.0706c0-0.0353-0.0529 0.194 0 0.123-0.0706 0.106-0.0882 0.141-0.265 0.123 0-0.0706 0.0882-0.0529 0.141-0.0706-0.123-0.106 0.0353-0.106 0-0.3zm-0.141 0.617v-0.194c0.194-0.0882 0.194 0.282 0 0.194zm-0.0529 0.459c0.0176-0.123-0.0529-0.282 0.0529-0.406 0.176-0.0353 0.106 0.141 0.0706 0.353-0.0176 0.0882-0.0353 0.123-0.0706 0.176-0.0176 0.0353-0.123 0.106-0.123 0.123-0.0176 0.0176 0.212 0.282-0.0529 0.247-0.0706-0.212 0.0706-0.335 0.123-0.494zm1.16-1.55c-0.0706 0-0.0706-0.141-0.0529-0.229 0-0.0176 0.106 0 0.106 0 0.0529-0.0529-0.212-0.247-0.176-0.0706 0.106 0.0882-0.247 0.247-0.0706 0.406-0.123 0.159-0.194 0.388-0.194 0.67 0.318 0.0176-0.0882-0.229 0.194-0.229 0.0882-0.0176 0.159 0.0176 0.194 0.0529 0.0882-0.247-0.282-0.0176-0.247-0.176-0.0176-0.0882 0.106-0.0882 0.123-0.123 0.0353-0.0706-0.0353-0.194 0-0.247 0.0176-0.0176 0.141 0.0176 0.123-0.0529zm-0.582 2.35c0.106-0.0176 0.176 0.0882 0.194 0-0.176 0.0353 0.0529-0.335-0.123-0.3 0.0176 0.141-0.123 0.123-0.0706 0.3z"/><path d="m20.7 56c-0.123 0.0176-0.176 0.0176-0.247 0.0706-0.0529 0.0176-0.0882 0.0353-0.141 0.0529-0.0529 0.0529-0.123 0.141-0.194 0.194-0.141 0.123-0.3 0.229-0.388 0.335-0.0529 0.0706-0.0706 0.159-0.141 0.247 0 0.0176-0.0529-0.0176-0.0529 0-0.0176 0.0176 0.0176 0.106 0 0.123-0.0353 0.0529-0.106 0.0706-0.141 0.141-0.0706 0.123-0.123 0.318-0.176 0.388-0.106 0.176-0.123 0.229-0.194 0.459-0.0176 0.0706-0.0706 0.159-0.0706 0.176 0 0.0706-0.0529 0.0529-0.0529 0.0706-0.0882 0.247-0.141 0.617-0.212 0.723-0.0353 0.0706-0.0882 0.123-0.123 0.194-0.0529 0.0706-0.0882 0.123-0.141 0.176-0.0882 0.141-0.0882 0.194-0.194 0.265-0.0176 0.0176 0.0176 0.106 0 0.141-0.0882 0.159-0.176 0.3-0.247 0.459-0.0706 0.176-0.123 0.335-0.194 0.512-0.123 0.318-0.229 0.688-0.318 1.04-0.106 0.37-0.229 0.829-0.265 1.16-0.0176 0.176 0.0176 0.423 0 0.635-0.0176 0.159-0.0706 0.318-0.0706 0.459 0 0.106 0.0529 0.194 0.0706 0.318 0.0176 0.318 0.0176 0.529 0.0529 0.723 0.0529 0.194 0.0882 0.353 0.141 0.388 0.0176 0-0.0176 0.106 0 0.123 0.0882 0.229 0.212 0.494 0.318 0.653 0.0353 0.0353 0.106 0.0353 0.141 0.0706 0.0353 0.0353 0.0176 0.159 0.0706 0.194 0.0176 0.0176 0.0882-0.0176 0.123 0 0.0353 0.0176 0.0353 0.123 0.123 0.123 0.0706 0.0176 0.0176 0.0529 0.0529 0.0706 0.141 0.0529 0.318 0.0529 0.459 0.123 0.106 0.0353 0.194 0.0882 0.265 0.123 0.423 0.159 0.9 0.3 1.31 0.194 0 0-0.0176-0.0529 0-0.0706 0.0176-0.0176 0.106 0.0176 0.123 0 0.141-0.0706 0.265-0.212 0.37-0.318 0.123-0.106 0.265-0.247 0.335-0.318 0.0529-0.0529 0.0176-0.123 0.0706-0.194 0.159-0.247 0.353-0.776 0.529-0.9 0.0176-0.0176-0.0176-0.106 0-0.141 0.0176-0.0706 0.0706-0.141 0.106-0.194 0.0176 0 0-0.106 0-0.123 0.0353-0.0882 0.0706-0.159 0.123-0.194 0.0176-0.0176 0-0.106 0-0.141 0.212-0.529 0.388-1.01 0.529-1.53 0.0353-0.106 0.0353-0.265 0.0706-0.388 0-0.0176 0.0529 0 0.0706 0 0.0176-0.0353-0.0529-0.106-0.0706-0.0706 0.0353-0.0706 0.106-0.0706 0.123-0.141 0.0353-0.123 0.0529-0.265 0.0706-0.388 0.0176-0.106 0.0706-0.318 0.141-0.37 0.0176-0.0353 0.0529-0.406 0.0529-0.406 0-0.0529 0.0706-0.0529 0.0706-0.0529 0-0.0706-0.0529-0.0529-0.0706-0.0706 0-0.0706 0.0706-0.0529 0.0706-0.0706 0.0529-0.265 0.0706-0.494 0.123-0.758 0.0353-0.212 0.0882-0.441 0.123-0.67 0.0706-0.476 0.159-1.01 0.123-1.53 0-0.0706-0.0529-0.0882-0.0529-0.123 0 0.0176 0.0529-0.0529 0.0529-0.0706 0.0176-0.0706-0.0353-0.106-0.0529-0.141-0.0353-0.0176 0-0.212 0-0.265-0.0176-0.0353-0.0706-0.0529-0.0706-0.0529-0.0706-0.265-0.123-0.512-0.247-0.635-0.0529-0.0706-0.194-0.194-0.194-0.212-0.0176-0.0176-0.106 0.0176-0.141 0 0 0 0.0176-0.0529 0-0.0529 0-0.0176-0.106 0-0.123 0-0.194-0.0882-0.529-0.194-0.653-0.265-0.0882-0.0529-0.265-0.141-0.318-0.141-0.0706 0-0.0353-0.0529-0.0706-0.0529-0.282-0.123-0.529-0.159-0.723-0.141-0.0353 0-0.0529 0.0706-0.0529 0.0706zm0.388 2.45c0.159-0.37 0.3-0.811 0.6-1.02-0.0882 0.141 0.0529 0.282 0.0529 0.388 0-0.0176-0.0529 0.0353-0.0529 0.0706 0 0 0.0529 0.653 0 0.706h-0.0706c0 0.0529 0.0706 0.0706 0.0706 0.0529-0.0176 0.0529-0.0529 0.0882-0.0706 0.141-0.0353 0.141-0.0353 0.3-0.0706 0.459-0.0353 0.176-0.0353 0.406-0.0706 0.564 0 0.0176-0.0529 0.0176-0.0529 0.0706 0 0.0353 0.0176 0.194 0 0.194-0.0882 0.0706-0.0176 0.123-0.0706 0.335 0 0.0176-0.0706 0.0176-0.0706 0.0706 0 0.159 0 0.229-0.0529 0.441-0.0176 0.0176-0.0706 0-0.0706 0.0529-0.0176 0.141-0.0882 0.3-0.141 0.476-0.229 0.794-0.494 1.73-0.829 2.52-0.0353 0.0706-0.106 0.176-0.123 0.247-0.0529 0.0882-0.0353 0.159-0.0706 0.265-0.0176 0.0176-0.0706-0.0176-0.0706 0.0529 0 0.0706-0.0706 0.176-0.123 0.265-0.0176 0.0176-0.0529 0.176-0.0706 0.194-0.106 0.0882-0.106 0.123-0.194 0.265l-0.0706 0.0706c-0.0882 0.123-0.0353 0.318-0.318 0.318-0.0529-0.935 0-1.76 0.141-2.54 0-0.106 0-0.229 0.0529-0.441 0.0176-0.0529 0.0882-0.388 0.194-0.582 0.0353-0.0882 0.0706-0.318 0.265-0.194-0.0353-0.388 0.123 0.141 0.194 0.0529 0.0353-0.0529 0.0353-0.0529 0.0706 0 0.0529 0 0.106-0.229 0.123-0.3 0-0.0529-0.0706-0.0706-0.0706-0.141 0 0.0176 0.0706-0.0176 0.0706-0.0529 0-0.0882 0.0882-0.406 0.123-0.529 0.0176-0.0353-0.0176-0.123 0-0.141 0.0706-0.0529 0.0529-0.0882 0.0706-0.194 0 0.0176 0.106-0.0353 0.0706-0.0529-0.106-0.0706 0-0.0529 0.0706-0.247 0.0176-0.141 0.0529-0.318 0.106-0.476 0.0176-0.0176-0.0176-0.106 0-0.123 0.0529-0.0353 0.0706-0.212 0.123-0.37l0.0706-0.265c0.0882-0.0706 0.176-0.388 0.265-0.6zm-0.635 7.51c-0.106 0.141-0.123 0.353-0.335 0.335 0.106-0.176 0.159-0.353 0.265-0.529 0.0353-0.0706 0.0529-0.106 0.0706-0.194 0.0176-0.0706 0.141-0.229 0.176-0.388 0.0353-0.123 0-0.159 0.0706-0.318 0.0176-0.0353 0.123-0.106 0.123-0.141 0.0529-0.106 0.0353-0.176 0.0706-0.247 0.0529-0.141 0.123-0.406 0.194-0.582 0.0353-0.0882 0.106-0.212 0.141-0.335 0-0.0353-0.0176-0.0882 0-0.123 0-0.0353 0.106-0.106 0.123-0.123 0.0176-0.0529-0.0176-0.106 0-0.141 0.0176-0.0529 0.0353-0.159 0.0706-0.247 0.0176-0.0529 0.0353-0.106 0.0529-0.194 0.0176-0.0529 0.0529-0.106 0.0706-0.194 0.0176-0.0529 0.0529-0.123 0.0706-0.194 0.0176-0.0882 0.141-0.353 0.176-0.529 0.0353-0.141 0.0353-0.3 0.0706-0.441 0-0.0176 0.0529 0 0.0529-0.0706 0.0176-0.0176 0-0.0529 0-0.0706 0.0706-0.141 0.159-0.476 0.212-0.706 0.0529-0.265 0.0706-0.441 0.123-0.723 0.0353-0.159 0.0353-0.265 0.0706-0.564 0.0176-0.229 0.106-0.706 0.0706-1.11 0.176 0.123 0.106 0.353 0.123 0.512 0.0176 0.212 0.0176 0.423 0 0.6-0.0529 0.741-0.229 1.48-0.388 2.2-0.0529 0.176-0.0882 0.318-0.141 0.494-0.0176 0.0882-0.0529 0.3-0.123 0.406-0.0353 0.0353-0.123 0.141-0.123 0.194 0.0176 0.0176 0.0706 0 0.0529 0.0706-0.0353 0.0706-0.0706 0-0.106 0.0529-0.0353 0.0353 0 0.106 0 0.141-0.0176 0.0353-0.0882 0.0706-0.0706 0.123 0 0.0176 0.0529 0.0882 0.0706 0.0706-0.0353 0.0706-0.106 0-0.141 0.0529-0.0353 0.0353 0.0353 0.141 0 0.194 0.0882 0.0706 0 0.0176-0.0706 0 0.0353 0.123-0.0353 0.176-0.0529 0.265-0.0353 0.0882-0.0882 0.265-0.141 0.388 0 0.0176-0.159 0.212 0 0.265 0 0.159-0.176-0.159-0.123 0.106-0.0529 0.0529-0.0529 0.123-0.0706 0.212 0-0.0353 0.106 0.0176 0.0706 0.0529-0.0176 0.0176-0.123-0.0176-0.141 0-0.0353 0.123-0.0353 0.159 0 0.335-0.159-0.159-0.141 0.123-0.194 0.265-0.123 0.106-0.0706 0.318-0.123 0.441-0.0176 0.0176-0.0706 0-0.0706 0.0706 0 0.0882-0.106 0.0882-0.106 0.194-0.0176 0.106-0.0353 0.0706-0.0706 0.123zm-1.06-6.99c-0.141-0.0882 0.106-0.282 0.0706-0.459 0.0529-0.123 0.0706 0.0353 0.0706 0.123-0.106 0.0706-0.106 0.212-0.141 0.335zm2.73-0.194c-0.123 0.159 0-0.0176 0-0.141 0.0176-0.229 0.159 0.194 0 0.141zm-0.141 0.776c0.0176-0.0882-0.0882-0.0882 0-0.247 0.141 0 0 0.106 0 0.106 0 0.0706 0.0706 0.106 0.0706 0.194-0.0176 0.212-0.176 0.459-0.141 0.723-0.194-0.141 0.0353-0.512 0.0706-0.776zm-0.37 1.94c-0.0882 0.141 0 0.353-0.141 0.512-0.141-0.106 0.0529-0.423 0.141-0.512-0.0529-0.247 0.106-0.282 0.0706-0.529 0.106-0.247-0.0176 0.318 0.106 0.265-0.0176 0.0882-0.0529 0.0353-0.0529 0-0.141 0 0 0.229 0 0.212-0.0176 0.0706-0.0882 0-0.123 0.0529zm-3.56 0.318c0.0353-0.159 0.0529-0.353 0.176-0.441 0.0176 0.0706-0.0706 0.265-0.123 0.388-0.0353 0.0529-0.0176 0.335-0.0529 0.0529zm3.23 0.529c0.0176-0.0706 0.106-0.141 0.0706-0.265 0.212-0.0882 0.0529 0.265 0 0.388-0.0353 0.0706 0 0.212-0.0706 0.388 0 0.0176-0.0529 0-0.0529 0-0.0529 0.0706-0.0176 0.141-0.0706 0.194-0.159 0-0.0529-0.194 0-0.247 0-0.0176 0.0706-0.0882 0.0706-0.0706 0.0176-0.0706-0.0706-0.123-0.0706-0.123 0.0353-0.141 0.0882-0.0882 0.123-0.265zm-3.35 0.459c-0.0353 0.123-0.0882-0.0529-0.0706-0.141 0.0176-0.123 0.0882 0.0529 0.0706 0.141zm2.77 0.0529s0.0882 0.0706 0.123 0.0706c0 0 0.0882-0.0882 0.0706 0 0-0.0353-0.106 0.0706-0.0706 0.0706-0.0706 0-0.176-0.106-0.123-0.141zm0.194 0.776c-0.0176-0.0706 0.0176-0.106 0.0706-0.123-0.0529-0.247 0.106-0.247 0.0529 0-0.0706 0.0176-0.0353 0.123-0.123 0.123zm-0.194 0.388v-0.123h0.123v0.123h-0.123z"/><path d="m29.1 61.4c0.194 0.0882 0.194-0.459 0-0.37 0.0706 0.194 0 0.141 0 0.37zm-0.582 1.57c0 0.0529-0.0353 0.106-0.0706 0.159h0.141c0.0353 0 0.0706-0.0176 0.0529-0.0706-0.0706 0-0.0529-0.0882-0.123-0.0882zm-0.0706 1.66c0-0.0706 0.123-0.0529 0.141-0.123-0.106 0-0.0353-0.159-0.141-0.176 0.0176 0.176-0.265 0.229 0 0.3zm1.5 0.494c-0.0706 0-0.0706-0.0529-0.141-0.0706-0.0529 0-0.0353 0.0706-0.0529 0.0706-0.123 0.0176 0-0.106 0-0.123-0.0353-0.0353-0.194 0.0529-0.194 0.0529-0.0353-0.3 0.0706-0.547 0.123-0.794 0.0529-0.212 0.0882-0.564 0.194-0.635 0.0353-0.0353-0.0529-0.0882-0.0706-0.0706 0.0176-0.0706 0.0529-0.106 0.0706-0.176 0.0529-0.194 0.159-0.406 0.194-0.529 0.0706-0.247 0.123-0.37 0.0706-0.547 0.123-0.0882 0.3-0.123 0.441-0.194 0.0176-0.176-0.0353-0.0353-0.123-0.123-0.0529-0.0529-0.123-0.0706-0.141-0.229 0.194-0.353 0.282-0.882 0.406-1.15v-0.0529c0-0.0529 0.0529-0.0353 0.0529-0.0529 0.0353-0.0882 0.0529-0.212 0.0706-0.3 0.0706-0.212 0.159-0.388 0.123-0.617 0.229 0 0.0529-0.353 0.265-0.353 0.0176-0.176 0.0176-0.353 0.0706-0.547 0-0.0176 0.123-0.0882 0.141-0.123 0.0353-0.0706 0.0353-0.176 0.0529-0.229 0.0176-0.0882 0.0176-0.141 0.0529-0.194 0.0176-0.0353 0.0706-0.0706 0.0706-0.106 0-0.0529 0.0529-0.0353 0.0529-0.0529 0.0353-0.0882-0.0176-0.212 0-0.3 0 0 0.0706-0.0353 0.0706-0.0706 0.0176-0.0176 0-0.0353 0-0.0529 0-0.0706 0.0529-0.0353 0.0706-0.0706 0.0529-0.123 0.106-0.247 0.123-0.3 0.0176-0.0176 0-0.0529 0-0.0706 0.0176-0.0529 0.0529-0.0353 0.0706-0.0529 0.0706-0.176 0.141-0.441 0.194-0.529 0.123-0.159-0.0176-0.159 0-0.37-0.318-0.0176-0.3-0.0176-0.529-0.176 0.0353 0.0529-0.0353 0.0353-0.0529 0.0529-0.159 0.159 0-0.265-0.123-0.0529-0.0882 0-0.0529-0.106-0.123-0.123-0.0176 0.0882-0.159 0.0529-0.265 0.0529 0.123-0.212-0.141-0.212-0.335-0.229 0 0.247-0.0353 0-0.123 0-0.0353 0.106-0.123 0.194-0.194 0.3-0.0353 0.0529-0.106 0.0706-0.141 0.123-0.0353 0.0706-0.0176 0.159-0.0353 0.247-0.0353 0.0353-0.0529-0.0176-0.0706 0.0529-0.0529 0.176-0.0706 0.141-0.141 0.247-0.0353 0.0882-0.123 0.229-0.123 0.282 0 0.0706-0.0529 0.0353-0.0706 0.0706-0.0529 0.106-0.0706 0.229-0.123 0.353-0.0529 0.123-0.141 0.247-0.194 0.37-0.0882 0.194-0.141 0.388-0.212 0.529-0.0176 0.0706-0.0176 0.141-0.0529 0.247-0.0176 0.0176-0.123 0.0882-0.141 0.123-0.0706 0.141-0.0353 0.194-0.0529 0.3-0.0353 0.106-0.0882 0.212-0.123 0.3-0.0706 0.176-0.141 0.406-0.194 0.529-0.0353 0.0882-0.0353 0.141-0.0706 0.247-0.0353 0.123-0.106 0.194-0.123 0.247-0.0176 0.0353 0 0.0882 0 0.123-0.0529 0.159-0.176 0.388-0.194 0.476-0.0882 0.265-0.106 0.512-0.265 0.67-0.776 0.0706-1.48 0.229-2.28 0.282 0.0529-0.123 0.141-0.176 0.212-0.229 0.0176-0.0176-0.0176-0.106 0-0.123 0.0353-0.0529 0.141-0.0706 0.194-0.123 0.0176-0.0176-0.0176-0.0882 0-0.123 0-0.0176 0.106-0.0353 0.123-0.0529 0.0529-0.0529 0.0176-0.123 0.0706-0.176 0.0176-0.0176 0.106-0.0529 0.123-0.0706 0.0353-0.0176-0.0176-0.106 0-0.123 0.0706-0.106 0.229-0.194 0.318-0.282 0.0882-0.106 0.0882-0.159 0.123-0.247 0.0176-0.0176 0.123-0.0353 0.141-0.0529 0.0176-0.0353-0.0176-0.106 0-0.123 0-0.0176 0.106-0.0529 0.123-0.0706 0.0529-0.0529 0.0882-0.123 0.141-0.176 0.123-0.159 0.229-0.3 0.318-0.423 0.0882-0.106 0.106-0.106 0.194-0.176 0.0176-0.0176-0.0176-0.0882 0-0.123 0.0176-0.0353 0.0882-0.0706 0.123-0.106 0.106-0.141 0.176-0.194 0.265-0.247 0.0176-0.0176-0.0176-0.106 0-0.123 0.0353-0.0529 0.0176-0.0353 0.0706-0.0706 0.0529-0.0353 0-0.0529 0.0529-0.123 0.0353-0.0353 0.106-0.0706 0.141-0.106 0.123-0.159 0.229-0.353 0.318-0.423 0.106-0.0706 0.159-0.159 0.194-0.229 0.0176-0.0353-0.0176-0.0882 0-0.123 0-0.0176 0.106-0.0353 0.123-0.0706 0.0176-0.0176 0.0706-0.106 0.0706-0.123 0-0.0882 0.123-0.0882 0.123-0.176 0-0.0706 0.0529-0.0353 0.0706-0.0706 0.141-0.212 0.423-0.512 0.265-0.829-0.0529-0.0882-0.3-0.123-0.335-0.123-0.0882 0-0.0882-0.106-0.123-0.123-0.0353 0-0.106 0.0529-0.0706 0.0706-0.194-0.0706-0.335-0.247-0.706-0.194 0.0176-0.247-0.318-0.194-0.459-0.282 0 0.0529-0.0706 0.0529-0.0706 0.106 0 0.106-0.159 0.335-0.176 0.37-0.0353 0.0353-0.0353 0.0706-0.0706 0.123-0.0529 0.0706-0.141 0.106-0.194 0.176-0.0176 0.0176-0.0529 0.106-0.0706 0.123 0 0.106-0.141 0.141-0.194 0.176-0.0176 0.0176 0.0176 0.106 0 0.123-0.0706 0.0706-0.194 0.0882-0.194 0.176 0 0.0882-0.0706 0.0176-0.123 0.0529-0.0353 0.0353-0.0353 0.159-0.0706 0.176-0.0529 0.0529-0.0882 0.123-0.141 0.194 0 0 0.0176 0.0529 0 0.0529 0 0.0176-0.106-0.0176-0.123 0-0.0176 0.0353 0.0176 0.0882 0 0.123 0 0.0176-0.0882 0.0353-0.106 0.0706-0.0706 0.0706-0.0706 0.159-0.141 0.229-0.0176 0.0353-0.106 0.0529-0.123 0.0706-0.0353 0.0176 0.0176 0.106 0 0.123-0.0529 0.0353-0.159 0.106-0.194 0.159-0.0529 0.0706-0.0882 0.123-0.141 0.176-0.0529 0.0882-0.141 0.123-0.194 0.194-0.0882 0.106-0.0706 0.194-0.141 0.3 0 0.0176-0.106 0.0353-0.123 0.0706-0.0529 0.0529-0.0706 0.123-0.106 0.176-0.0529 0.0706-0.141 0.106-0.212 0.159-0.0353 0.0529 0.0176 0.123-0.0529 0.123-0.106 0-0.159 0.265-0.194 0.3-0.0882 0.106-0.194 0.106-0.212 0.194 0 0.0706-0.0353 0.0176-0.0529 0.0529-0.0882 0.123-0.141 0.229-0.212 0.318-0.0529 0.0706-0.141 0.106-0.194 0.176-0.0706 0.106-0.141 0.282-0.247 0.406 0 0.0176-0.0353 0.0353-0.0529 0.0706-0.0882 0.123-0.106 0.159-0.194 0.229-0.0353 0.0176-0.0529 0.176-0.0706 0.194-0.106 0.141-0.141 0.229-0.194 0.353-0.0353 0.0882-0.0529 0.141-0.0706 0.229 0 0 0.0706 0.0176 0.0706 0.0706 0 0.0176-0.106 0.0353-0.0706 0.123l0.123 0.0529c0.0353 0.0176-0.0176 0.106 0 0.123 0.0529 0.0529 0.265 0.229 0.212 0.176 0.0176 0.0353 0.265 0.0353 0.388 0.0706 0.0882 0.0353 0.212 0.0882 0.3 0.123 0.265 0.0706 0.529 0.212 0.723 0.247 0.247 0.0176 0.582 0.0176 0.847 0 0.0882-0.0176 0.123-0.0529 0.194-0.0706 0.353-0.0529 0.635-0.0176 0.9-0.0529v-0.0706c0.0176-0.0176 0.106 0 0.141 0 0.212-0.0529 0.423-0.0882 0.635-0.123-0.3 0.952-0.476 2.2-0.635 3.25-0.0529 0.335-0.0353 0.494 0 0.723 0.0706 0.0176 0.141 0.0176 0.123 0.106 0.159 0.0176 0.265 0.123 0.388 0-0.0353 0.176 0.212 0.141 0.318 0.176 0.0353 0.0176 0 0.0529 0.0706 0.0706 0.0882 0.0176 0.141 0.0176 0.194 0.0529 0.106 0.106 0.353 0.141 0.459 0.0706 0.0706 0.0882 0.176 0.141 0.265 0.0529 0.123-0.0882 0.106-0.212 0.176-0.353 0.0529-0.123 0.123-0.194 0.123-0.353 0.0176-0.0706 0.0529-0.0353 0.0706-0.0706 0.0529-0.0882 0.123-0.247 0.141-0.3 0-0.106 0.106-0.194 0.123-0.3 0.0176-0.0353 0.0706-0.0529 0.0706-0.0706 0.0176-0.0529-0.106-0.106 0-0.123 0.0529 0 0.0529-0.0529 0.0529-0.106 0.0176-0.141 0.212-0.194 0.141-0.353zm-0.723-4.52c0 0.0176 0.159 0.265 0 0.37 0.0882-0.0353 0.106-0.123 0.194-0.123-0.123-0.0882 0-0.141 0-0.247 0-0.0353 0.0529-0.0706 0.0706-0.106 0.0353-0.0706 0.0353-0.282 0.194-0.247-0.0353-0.247-0.0353-0.176 0-0.423 0.247 0.0529 0.0529-0.282 0.265-0.247 0.0529-0.0706-0.0706-0.106-0.0706-0.123 0-0.0706 0.123-0.0706 0.141-0.123 0.0176-0.0176-0.0353-0.123 0-0.159 0 0 0.176-0.0176 0.123-0.0706 0 0-0.0706 0.0176-0.0706 0s0.0882-0.176 0.141-0.176c-0.106-0.123 0-0.0706 0-0.247 0.159-0.106 0.106 0.282 0.176 0.0706 0.106 0.0176 0.0353 0.335-0.106 0.3 0.0176 0.0353 0.0529 0.512-0.141 0.476-0.0529 0.0706 0.0706 0.176 0.0706 0.176-0.0176 0.0706-0.106 0.0176-0.141 0.0529-0.0176 0.0353 0.0176 0.0882 0 0.123 0 0.0529-0.0353 0.106-0.0529 0.194-0.0176 0.0529-0.0529 0.106-0.0706 0.176-0.0176 0.0529-0.0529 0.106-0.0706 0.176-0.0176 0.0529-0.0529 0.0529-0.0706 0.0706-0.0176 0.0706 0.0353 0.159 0 0.229 0 0.0176-0.0529 0-0.0529 0.0529 0 0.0706-0.0706 0.229-0.265 0.194 0 0.0706 0.123 0.0353 0.194 0.0529-0.159 0.318-0.212 0.741-0.459 0.952 0.194 0.176-0.0882 0.159 0 0.423 0.0176 0.0706 0.0706 0.194-0.123 0.247 0.0176 0.0529 0.0529 0.106 0.123 0.123-0.0353 0.0882-0.0882-0.0176-0.176 0 0 0.106 0.0353 0.123 0.0529 0.247 0-0.0176-0.106 0.0176-0.0529 0.0353 0.0882 0.0882-0.0176 0.0353-0.141 0.123-0.0176 0.0353 0.106 0.0706 0.0706 0 0.212 0.0176-0.123 0.282 0.0706 0.247-0.159 0.0882-0.0176 0.494-0.265 0.494 0.159 0.176 0 0.423-0.141 0.529 0.123 0.194 0 0.247 0.0706 0.476-0.0529 0-0.0706-0.0529-0.123-0.0529-0.0176 0.0529 0.0176 0.0529 0.0529 0.0529-0.0529 0.212-0.123-0.0529-0.194-0.0529 0.0353-0.0882 0.212-0.0529 0.141-0.247-0.123 0-0.141 0.0706-0.265 0.0706-0.0176 0.106 0.106 0.159 0 0.176-0.229 0.0353-0.106-0.123-0.0706-0.176-0.247-0.0529-0.123 0.318 0.0706 0.229-0.0176 0.0706 0.0176 0.141 0 0.194-0.0176 0.0529-0.0529 0.106-0.0706 0.176 0 0.0353-0.0706 0.0706-0.0706 0.0706 0 0.0706 0.106 0.0176 0.141 0.0529 0.0353 0.0529-0.176 0.176-0.0706 0.282-0.229-0.123 0 0.0353-0.123 0.0706-0.123 0.0176-0.141-0.0529-0.0706-0.0706-0.141-0.0882-0.194-0.318 0-0.406-0.0529-0.0882-0.106 0.0176-0.247-0.0529 0-0.0706 0.0706-0.0529 0.123-0.0706 0.0353-0.0706-0.0706-0.0882-0.0706-0.123-0.0176-0.0706 0.0529-0.0353 0.0706-0.0529 0-0.0176-0.0882-0.0882-0.0706-0.123 0.123-0.123-0.0529-0.123 0.0706-0.3 0.0882-0.141-0.0882-0.212 0.123-0.353-0.0353-0.123-0.0706-0.353 0-0.494l0.123-0.0529c0.0176-0.0353-0.0706-0.141-0.0529-0.247 0-0.0176 0.0176-0.265 0.0529-0.3h0.0706c0.0176-0.0529-0.0529-0.123-0.0706-0.106 0.0176-0.0353 0.159-0.159 0.141-0.176 0-0.0176-0.0706 0-0.0706 0 0.0176-0.0353 0.0353-0.159 0.0706-0.194 0-0.0176 0.123-0.0529 0.123-0.0529 0.0353-0.0706-0.0529-0.0353-0.0529-0.0706 0 0.0353 0.0176-0.194 0.0529-0.3 0.0176-0.0176 0.176-0.159 0.141-0.176-0.0706-0.0706-0.0353-0.0529 0.0529-0.0706-0.123-0.212 0.141-0.176 0-0.406 0.194 0.0176 0.106-0.247 0.141-0.3 0-0.0176 0.123 0.0176 0.123 0 0.0353-0.0706-0.123-0.106-0.123-0.123 0-0.0529 0.194-0.194 0.194-0.176 0.0176-0.0529-0.123-0.159 0.0706-0.123-0.0706-0.0882 0.0529-0.176 0.0529-0.194 0-0.0706-0.123-0.141 0-0.282 0-0.0176 0.159-0.0882 0.123-0.123-0.141-0.123 0.141-0.106 0.0706-0.176h-0.0706c0.0353-0.123 0.212-0.212 0.123-0.37 0.0882-0.0706 0.106-0.0176 0.212 0-0.0706-0.0529-0.0529-0.159-0.141-0.176 0.0529-0.0529 0.0706-0.141 0.0706-0.229 0.123 0.0176 0.0706-0.141 0.123-0.194 0.0882-0.0529 0.0706-0.141 0.141-0.229 0.0353-0.0706 0.0353-0.106 0.0529-0.194 0.0176-0.0353 0.0706-0.0353 0.0706-0.0529 0.0176-0.0706-0.0176-0.176 0-0.247 0.0176-0.0176 0.0706 0 0.0706-0.0529 0-0.0353 0.0529-0.0882 0.0706-0.123 0.0176-0.0529 0.0176-0.159 0.0529-0.229 0.0353-0.0353 0.0882 0.0353 0.0706 0.0529 0 0.0176 0.106-0.0176 0.0706-0.0529-0.0529-0.0353-0.0706-0.0882-0.0706-0.194 0.0882-0.0353 0.123-0.123 0.141-0.229 0.141 0.141 0.123 0.441-0.0706 0.582-0.0882 0.512-0.229 0.97-0.529 1.27-0.0353 0.123 0.0529 0.229 0 0.353 0 0.0176-0.212 0.123-0.123 0.194h0.0529c0 0.0353-0.0353 0.176-0.0529 0.247-0.0176 0.0176-0.123 0.0353-0.141 0.0529-0.0176 0.0529 0.0176 0.141 0 0.176 0 0.0176-0.0529 0.0176-0.0706 0.0706 0 0.0706-0.106 0.0706-0.123 0.106zm1.29-1.92c-0.123 0.0353-0.159-0.0353-0.229-0.0529 0.0176-0.0706 0.0529-0.123 0.176-0.123-0.0882-0.0882-0.176-0.123-0.0706-0.247 0.0706 0.0176 0.0353 0.0706 0 0.0706 0.0529 0.106 0.123 0 0.194 0 0-0.318 0.106-0.423 0.265-0.723 0.0706 0.0176 0.0353 0.0706 0 0.0706 0.0176 0.0529 0.0882 0.0882 0 0.229-0.0176 0.0353-0.123 0.106-0.123 0.123-0.0353 0.0706 0.0176 0.159 0 0.229-0.0176 0.0176-0.176 0.0882-0.141 0.123h0.0706c0 0.123-0.194 0.212-0.141 0.3zm-1.02 0.123c-0.212-0.0529 0.0706-0.123 0.0706-0.176 0.176 0.0353-0.106 0.0882-0.0706 0.176zm-0.388 0.776c0.0882-0.0353-0.0176-0.282 0.194-0.247-0.106 0.0529 0.0176 0.3-0.194 0.247zm0 0.176c0-0.0353-0.0353-0.0529-0.0529-0.0529 0.194-0.229 0.106 0.37-0.0706 0.123 0-0.0529 0.0882-0.0529 0.123-0.0706zm-0.388 0.67c0.0882 0.0353 0.106 0.123 0.194 0.123-0.0176 0.141-0.247 0.0176-0.194-0.123zm0.265 0.0706c-0.247 0.0529-0.159-0.617 0.0706-0.547 0.0529 0.194-0.106 0.141-0.141 0.247-0.0529 0.159 0.106 0.159 0.0706 0.3zm-0.194 0.353c-0.194 0-0.212-0.176-0.141-0.247 0.123 0.0176 0.159 0.106 0.141 0.247zm-0.265 0.3c-0.0176-0.159 0.0176-0.265 0.194-0.247-0.106 0.0529 0.0176 0.3-0.194 0.247zm0.123 0.0529c0.0176 0.176-0.476-0.0176-0.123 0h0.123zm-0.0529 0.318c-0.141 0.212-0.335-0.265 0-0.194 0.0176 0.106-0.123 0.159 0 0.194zm-0.265 0.459c-0.194-0.0706 0.0706-0.194 0-0.335 0.0176 0 0.106-0.0353 0.123 0 0.0529 0.0353-0.0529 0.0529-0.0529 0.0529 0.0176 0.159 0.0706 0.123-0.0706 0.282zm-0.194 0.247c0.0706 0.0176 0.106-0.0176 0.123-0.0529 0.265 0.106-0.141 0.106-0.0706 0.176h0.0706c0-0.0353-0.0529 0.194 0 0.123-0.0706 0.106-0.0882 0.141-0.265 0.123 0-0.0706 0.0882-0.0529 0.141-0.0706-0.123-0.106 0.0353-0.106 0-0.3zm-0.141 0.617v-0.194c0.194-0.0882 0.194 0.282 0 0.194zm-0.0529 0.459c0.0176-0.123-0.0529-0.282 0.0529-0.406 0.176-0.0353 0.106 0.141 0.0706 0.353-0.0176 0.0882-0.0353 0.123-0.0706 0.176-0.0176 0.0353-0.123 0.106-0.123 0.123-0.0176 0.0176 0.212 0.282-0.0529 0.247-0.0706-0.212 0.0706-0.335 0.123-0.494zm1.16-1.55c-0.0706 0-0.0706-0.141-0.0529-0.229 0-0.0176 0.106 0 0.106 0 0.0529-0.0529-0.212-0.247-0.176-0.0706 0.106 0.0882-0.247 0.247-0.0706 0.406-0.123 0.159-0.194 0.388-0.194 0.67 0.318 0.0176-0.0882-0.229 0.194-0.229 0.0882-0.0176 0.159 0.0176 0.194 0.0529 0.0882-0.247-0.282-0.0176-0.247-0.176-0.0176-0.0882 0.106-0.0882 0.123-0.123 0.0353-0.0706-0.0353-0.194 0-0.247 0.0176-0.0176 0.141 0.0176 0.123-0.0529zm-0.582 2.35c0.106-0.0176 0.176 0.0882 0.194 0-0.176 0.0353 0.0529-0.335-0.123-0.3 0.0176 0.141-0.123 0.123-0.0706 0.3z"/></g></g></svg>
