<svg version="1.1" viewBox="0 0 1561 534" xmlns="http://www.w3.org/2000/svg"><defs><clipPath id="b"><path transform="translate(-1790 -1615)" d="m0 2041h4876v-2041h-4876z"/></clipPath><clipPath id="d"><path transform="translate(-2005 -1573)" d="m0 2041h4876v-2041h-4876z"/></clipPath><clipPath id="e"><path transform="translate(-764 -1486)" d="m0 2041h4876v-2041h-4876z"/></clipPath><clipPath id="f"><path transform="translate(-1144 -1399)" d="m0 2041h4876v-2041h-4876z"/></clipPath><clipPath id="g"><path transform="translate(-1375 -1262)" d="m0 2041h4876v-2041h-4876z"/></clipPath><clipPath id="h"><path transform="translate(-4097 -851)" d="m0 2041h4876v-2041h-4876z"/></clipPath><clipPath id="i"><path transform="translate(-3647 -530)" d="m0 2041h4876v-2041h-4876z"/></clipPath><clipPath id="j"><path transform="translate(-3291 -1216)" d="m0 2041h4876v-2041h-4876z"/></clipPath><clipPath id="k"><path transform="translate(-2226 -851)" d="m0 2041h4876v-2041h-4876z"/></clipPath><clipPath id="l"><path transform="translate(-4496 -345)" d="m0 2041h4876v-2041h-4876z"/></clipPath><clipPath id="m"><path transform="translate(-4304 -382)" d="m0 2041h4876v-2041h-4876z"/></clipPath><clipPath id="o"><path transform="translate(-4226 -272)" d="m0 2041h4876v-2041h-4876z"/></clipPath><clipPath id="p"><path transform="translate(-3946 -269)" d="m0 2041h4876v-2041h-4876z"/></clipPath><clipPath id="q"><path transform="translate(-3815 -272)" d="m0 2041h4876v-2041h-4876z"/></clipPath><clipPath id="r"><path transform="translate(-3707 -287)" d="m0 2041h4876v-2041h-4876z"/></clipPath><clipPath id="s"><path transform="translate(-3514 -272)" d="m0 2041h4876v-2041h-4876z"/></clipPath><clipPath id="t"><path transform="translate(-3478 -386)" d="m0 2041h4876v-2041h-4876z"/></clipPath><clipPath id="u"><path transform="translate(-3342 -388)" d="m0 2041h4876v-2041h-4876z"/></clipPath><clipPath id="v"><path transform="translate(-3109 -272)" d="m0 2041h4876v-2041h-4876z"/></clipPath><clipPath id="w"><path transform="translate(-3019 -395)" d="m0 2041h4876v-2041h-4876z"/></clipPath><clipPath id="x"><path transform="translate(-2859 -289)" d="m0 2041h4876v-2041h-4876z"/></clipPath><clipPath id="z"><path transform="translate(-2654 -272)" d="m0 2041h4876v-2041h-4876z"/></clipPath><clipPath id="aa"><path transform="translate(-2564 -395)" d="m0 2041h4876v-2041h-4876z"/></clipPath><clipPath id="ab"><path transform="translate(-2396 -272)" d="m0 2041h4876v-2041h-4876z"/></clipPath><clipPath id="ac"><path transform="translate(-2306 -395)" d="m0 2041h4876v-2041h-4876z"/></clipPath><clipPath id="ad"><path transform="translate(-2211 -454)" d="m0 2041h4876v-2041h-4876z"/></clipPath><clipPath id="a"><path transform="translate(-2074 -289)" d="m0 2041h4876v-2041h-4876z"/></clipPath><clipPath id="c"><path transform="translate(-1891 -410)" d="m0 2041h4876v-2041h-4876z"/></clipPath><clipPath id="n"><path transform="translate(-1807 -269)" d="m0 2041h4876v-2041h-4876z"/></clipPath><clipPath id="y"><path transform="translate(-1723 -437)" d="m0 2041h4876v-2041h-4876z"/></clipPath></defs><g transform="translate(563 173)"><g fill="#e43122"><path transform="matrix(.353 0 0 -.353 -28.5 302)" d="m0 0c-0.827-1.38-1.7-2.42-2.6-3.1-0.919-0.667-2.1-1-3.57-1-1.54 0-3.34 0.769-5.41 2.3-2.05 1.55-4.66 3.27-7.81 5.14-3.14 1.89-6.93 3.6-11.4 5.14-4.43 1.55-9.8 2.34-16.1 2.34-5.94 0-11.2-0.801-15.8-2.4-4.57-1.6-8.38-3.77-11.5-6.51-3.06-2.74-5.36-5.96-6.91-9.65-1.54-3.7-2.3-7.7-2.3-12 0-5.48 1.34-10 4.04-13.6 2.69-3.61 6.25-6.7 10.7-9.25 4.42-2.56 9.45-4.78 15.1-6.65s11.4-3.82 17.3-5.84c5.89-2 11.7-4.26 17.3-6.78 5.61-2.5 10.6-5.67 15.1-9.52 4.42-3.83 7.99-8.53 10.7-14.1 2.69-5.57 4.04-12.4 4.04-20.5 0-8.6-1.46-16.7-4.38-24.2-2.92-7.53-7.2-14.1-12.8-19.6-5.61-5.57-12.5-9.95-20.7-13.2-8.17-3.2-17.5-4.81-27.9-4.81-12.7 0-24.3 2.3-34.7 6.91-10.5 4.62-19.4 10.9-26.8 18.7l7.68 12.6c0.736 1 1.62 1.84 2.67 2.54 1.04 0.684 2.2 1.04 3.47 1.04 1.91 0 4.11-1.04 6.58-3.11 2.47-2.05 5.55-4.31 9.25-6.78 3.69-2.47 8.16-4.73 13.4-6.78 5.25-2.05 11.7-3.07 19.3-3.07 6.3 0 11.9 0.868 16.8 2.6 4.94 1.74 9.12 4.17 12.5 7.31 3.42 3.15 6.05 6.93 7.88 11.3 1.85 4.38 2.77 9.27 2.77 14.7 0 5.92-1.36 10.8-4.07 14.6-2.7 3.81-6.24 6.99-10.6 9.55-4.37 2.56-9.37 4.72-15 6.51-5.61 1.78-11.4 3.61-17.3 5.48-5.88 1.87-11.6 4.02-17.3 6.48-5.61 2.47-10.6 5.66-15 9.58-4.39 3.94-7.93 8.85-10.6 14.7-2.7 5.89-4.04 13.2-4.04 21.9 0 6.95 1.34 13.7 4.04 20.1 2.69 6.48 6.6 12.2 11.7 17.3 5.12 5.03 11.4 9.05 19 12.1 7.55 3.02 16.2 4.54 26 4.54 11 0 20.9-1.74 30-5.21 9.03-3.47 16.9-8.51 23.7-15.1z" clip-path="url(#y)"/><path transform="matrix(.353 0 0 -.353 1.33 362)" d="m0 0c-11 0-19.4 3.06-25.3 9.18-5.88 6.12-8.82 14.9-8.82 26.4v84.9h-16.7c-1.45 0-2.67 0.434-3.67 1.3-1 0.87-1.5 2.21-1.5 4.04v9.72l22.7 2.87 5.61 42.9c0.175 1.38 0.769 2.5 1.77 3.37 1 0.868 2.28 1.3 3.84 1.3h12.3v-47.8h39.7v-17.7h-39.7v-83.3c0-5.84 1.41-10.2 4.24-13 2.85-2.83 6.51-4.24 11-4.24 2.54 0 4.74 0.344 6.61 1.04 1.88 0.684 3.51 1.44 4.88 2.27 1.38 0.818 2.54 1.57 3.5 2.24 0.953 0.684 1.8 1.04 2.54 1.04 1.27 0 2.4-0.77 3.41-2.31l7.14-11.7c-4.2-3.94-9.28-7.04-15.2-9.28-5.93-2.22-12-3.34-18.4-3.34" clip-path="url(#n)"/><path transform="matrix(.353 0 0 -.353 30.7 312)" d="m0 0v-88.5c0-10.5 2.41-18.6 7.25-24.4 4.85-5.74 12.2-8.62 21.9-8.62 7.12 0 13.8 1.68 20.1 5.04 6.3 3.38 12.1 8.09 17.4 14.1v102h24.4v-139h-14.5c-3.47 0-5.67 1.69-6.58 5.08l-1.9 14.9c-6.04-6.68-12.8-12.1-20.3-16.1-7.48-4.05-16.1-6.08-25.7-6.08-7.57 0-14.3 1.26-20.1 3.77-5.79 2.51-10.7 6.05-14.6 10.6-3.92 4.56-6.86 10.1-8.82 16.6-1.96 6.49-2.94 13.7-2.94 21.5v88.5z" clip-path="url(#c)"/><path transform="matrix(.353 0 0 -.353 95.5 355)" d="m0 0c7.95 0 14.9 1.82 20.9 5.48 5.99 3.67 11.5 8.83 16.5 15.5v67.1c-4.47 6.03-9.38 10.3-14.7 12.7-5.34 2.42-11.3 3.64-17.8 3.64-13 0-22.9-4.61-29.9-13.8-6.94-9.22-10.4-22.4-10.4-39.4 0-9.06 0.776-16.8 2.34-23.2 1.55-6.43 3.84-11.7 6.84-15.9 3.01-4.14 6.7-7.18 11.1-9.12 4.38-1.92 9.42-2.87 15.1-2.87m47.3-17.8c-3.47 0-5.67 1.69-6.58 5.08l-2.21 16.8c-5.93-7.21-12.7-13-20.3-17.3-7.61-4.33-16.4-6.48-26.2-6.48-7.95 0-15.2 1.53-21.7 4.57-6.48 3.05-12 7.55-16.6 13.5-4.57 5.94-8.08 13.3-10.6 22.2-2.47 8.86-3.71 19-3.71 30.6 0 10.2 1.37 19.7 4.11 28.6 2.76 8.82 6.71 16.5 11.9 22.9 5.16 6.48 11.4 11.6 18.8 15.3 7.41 3.72 15.8 5.58 25.2 5.58 8.5 0 15.8-1.45 21.8-4.34 6.03-2.87 11.4-6.91 16.2-12.1v77h24.4v-202z" clip-path="url(#a)"/><path transform="matrix(.353 0 0 -.353 144 297)" d="m0 0c0-2.36-0.483-4.58-1.44-6.65-0.96-2.05-2.24-3.87-3.84-5.48-1.59-1.59-3.43-2.83-5.54-3.74-2.1-0.919-4.33-1.37-6.71-1.37-2.36 0-4.57 0.451-6.64 1.37-2.05 0.91-3.87 2.15-5.48 3.74-1.6 1.6-2.86 3.42-3.77 5.48-0.919 2.07-1.37 4.28-1.37 6.65 0 2.38 0.451 4.64 1.37 6.78 0.908 2.15 2.17 4.02 3.77 5.61 1.6 1.6 3.42 2.86 5.48 3.77 2.07 0.936 4.28 1.4 6.64 1.4 2.38 0 4.62-0.468 6.71-1.4 2.11-0.917 3.96-2.17 5.54-3.77 1.6-1.59 2.88-3.46 3.84-5.61 0.953-2.14 1.44-4.4 1.44-6.78m-5.48-182h-24.4v139h24.4z" clip-path="url(#ad)"/><path transform="matrix(.353 0 0 -.353 177 317)" d="m0 0c-11.8 0-21.1-3.41-27.8-10.2-6.74-6.8-10.9-16.2-12.6-28.3h75.5c0 5.68-0.784 10.9-2.34 15.6-1.56 4.69-3.86 8.76-6.88 12.2-3 3.42-6.68 6.08-11 7.95-4.32 1.87-9.28 2.81-14.9 2.81m-0.534 17.9c8.3 0 16-1.39 23-4.17 7.03-2.79 13.1-6.8 18.2-12.1 5.12-5.26 9.12-11.7 12-19.5 2.87-7.7 4.31-16.5 4.31-26.3 0-3.83-0.417-6.39-1.24-7.68-0.827-1.27-2.37-1.9-4.64-1.9h-92.3c0.175-8.78 1.35-16.4 3.54-22.9 2.21-6.48 5.22-11.9 9.05-16.2 3.82-4.32 8.39-7.56 13.7-9.72 5.29-2.14 11.2-3.21 17.8-3.21 6.09 0 11.4 0.703 15.8 2.1 4.43 1.42 8.25 2.96 11.5 4.61 3.21 1.64 5.88 3.17 8.01 4.58 2.14 1.42 3.98 2.14 5.54 2.14 2 0 3.56-0.786 4.67-2.34l6.84-8.88c-3.03-3.67-6.64-6.86-10.9-9.55-4.19-2.7-8.68-4.91-13.5-6.64-4.79-1.72-9.74-3.01-14.9-3.88-5.1-0.867-10.2-1.3-15.2-1.3-9.6 0-18.4 1.62-26.5 4.84-8.08 3.25-15.1 8-21 14.3-5.88 6.25-10.5 14-13.8 23.2-3.27 9.23-4.91 19.8-4.91 31.8 0 9.68 1.48 18.7 4.44 27.1 2.96 8.42 7.22 15.7 12.8 21.9 5.59 6.16 12.4 11 20.4 14.5 8.03 3.51 17.1 5.27 27.1 5.27" clip-path="url(#ac)"/><path transform="matrix(.353 0 0 -.353 209 361)" d="m0 0v139h14c2.65 0 4.48-0.502 5.48-1.5 1.02-1 1.71-2.74 2.07-5.21l1.64-21.6c4.76 9.66 10.6 17.2 17.6 22.6 6.99 5.45 15.2 8.18 24.6 8.18 3.82 0 7.29-0.433 10.4-1.3 3.11-0.87 5.99-2.09 8.65-3.64l-3.14-18.2c-0.652-2.27-2.06-3.4-4.24-3.4-1.29 0-3.26 0.433-5.91 1.3-2.66 0.868-6.34 1.3-11.1 1.3-8.51 0-15.6-2.47-21.3-7.41-5.7-4.93-10.5-12.1-14.3-21.5v-88.4z" clip-path="url(#ab)"/><path transform="matrix(.353 0 0 -.353 268 317)" d="m0 0c-11.8 0-21.1-3.41-27.8-10.2-6.74-6.8-10.9-16.2-12.6-28.3h75.5c0 5.68-0.784 10.9-2.34 15.6-1.56 4.69-3.86 8.76-6.88 12.2-3 3.42-6.68 6.08-11 7.95-4.32 1.87-9.28 2.81-14.9 2.81m-0.534 17.9c8.3 0 16-1.39 23-4.17 7.03-2.79 13.1-6.8 18.2-12.1 5.12-5.26 9.12-11.7 12-19.5 2.87-7.7 4.31-16.5 4.31-26.3 0-3.83-0.417-6.39-1.24-7.68-0.827-1.27-2.37-1.9-4.64-1.9h-92.3c0.175-8.78 1.35-16.4 3.54-22.9 2.21-6.48 5.22-11.9 9.05-16.2 3.82-4.32 8.39-7.56 13.7-9.72 5.29-2.14 11.2-3.21 17.8-3.21 6.09 0 11.4 0.703 15.8 2.1 4.43 1.42 8.25 2.96 11.5 4.61 3.21 1.64 5.88 3.17 8.01 4.58 2.14 1.42 3.98 2.14 5.54 2.14 2 0 3.56-0.786 4.67-2.34l6.85-8.88c-3.03-3.67-6.64-6.86-10.9-9.55-4.19-2.7-8.68-4.91-13.5-6.64-4.79-1.72-9.74-3.01-14.9-3.88-5.1-0.867-10.2-1.3-15.2-1.3-9.6 0-18.4 1.62-26.5 4.84-8.08 3.25-15.1 8-21 14.3-5.88 6.25-10.5 14-13.8 23.2-3.27 9.23-4.91 19.8-4.91 31.8 0 9.68 1.48 18.7 4.44 27.1 2.96 8.42 7.22 15.7 12.8 21.9 5.59 6.16 12.4 11 20.4 14.5 8.03 3.51 17.1 5.27 27.1 5.27" clip-path="url(#aa)"/><path transform="matrix(.353 0 0 -.353 300 361)" d="m0 0v139h14.5c3.47 0 5.66-1.7 6.58-5.08l1.9-15.1c6.03 6.65 12.8 12 20.2 16.1 7.45 4.12 16.1 6.18 25.8 6.18 7.56 0 14.2-1.26 20-3.77 5.81-2.5 10.6-6.06 14.5-10.7 3.89-4.61 6.85-10.2 8.85-16.6 2-6.48 3-13.6 3-21.5v-88.4h-24.4v88.4c0 10.5-2.4 18.6-7.21 24.4-4.79 5.81-12.1 8.72-22 8.72-7.21 0-14-1.74-20.2-5.21-6.26-3.47-12-8.18-17.3-14.1v-102z" clip-path="url(#z)"/><path transform="matrix(.353 0 0 -.353 372 355)" d="m0 0c7.95 0 14.9 1.82 20.9 5.48 5.99 3.67 11.5 8.83 16.5 15.5v67.1c-4.47 6.03-9.38 10.3-14.7 12.7-5.34 2.42-11.3 3.64-17.8 3.64-13 0-22.9-4.61-29.9-13.8-6.94-9.22-10.4-22.4-10.4-39.4 0-9.06 0.778-16.8 2.34-23.2 1.55-6.43 3.84-11.7 6.84-15.9 3.01-4.14 6.7-7.18 11.1-9.12 4.38-1.92 9.42-2.87 15.1-2.87m47.2-17.8c-3.47 0-5.67 1.69-6.58 5.08l-2.21 16.8c-5.93-7.21-12.7-13-20.3-17.3-7.61-4.33-16.4-6.48-26.2-6.48-7.95 0-15.2 1.53-21.7 4.57-6.48 3.05-12 7.55-16.6 13.5-4.56 5.94-8.08 13.3-10.6 22.2-2.47 8.86-3.71 19-3.71 30.6 0 10.2 1.37 19.7 4.1 28.6 2.76 8.82 6.71 16.5 11.9 22.9 5.16 6.48 11.4 11.6 18.8 15.3 7.41 3.72 15.8 5.58 25.2 5.58 8.5 0 15.8-1.45 21.8-4.34 6.03-2.87 11.4-6.91 16.2-12.1v77h24.4v-202z" clip-path="url(#x)"/><path transform="matrix(.353 0 0 -.353 429 317)" d="m0 0c-11.8 0-21.1-3.41-27.8-10.2-6.75-6.8-10.9-16.2-12.6-28.3h75.5c0 5.68-0.784 10.9-2.34 15.6-1.56 4.69-3.86 8.76-6.88 12.2-3.01 3.42-6.68 6.08-11 7.95-4.32 1.87-9.28 2.81-14.9 2.81m-0.534 17.9c8.3 0 16-1.39 23-4.17 7.03-2.79 13.1-6.8 18.2-12.1 5.12-5.26 9.12-11.7 12-19.5 2.87-7.7 4.31-16.5 4.31-26.3 0-3.83-0.417-6.39-1.24-7.68-0.827-1.27-2.37-1.9-4.64-1.9h-92.3c0.176-8.78 1.35-16.4 3.54-22.9 2.2-6.48 5.22-11.9 9.05-16.2 3.82-4.32 8.39-7.56 13.7-9.72 5.29-2.14 11.2-3.21 17.8-3.21 6.09 0 11.4 0.703 15.8 2.1 4.43 1.42 8.25 2.96 11.5 4.61 3.21 1.64 5.88 3.17 8.01 4.58 2.14 1.42 3.98 2.14 5.54 2.14 2.01 0 3.56-0.786 4.68-2.34l6.84-8.88c-3.03-3.67-6.64-6.86-10.9-9.55-4.19-2.7-8.68-4.91-13.5-6.64-4.79-1.72-9.74-3.01-14.9-3.88-5.1-0.867-10.2-1.3-15.2-1.3-9.6 0-18.4 1.62-26.5 4.84-8.08 3.25-15.1 8-21 14.3-5.88 6.25-10.5 14-13.8 23.2-3.27 9.23-4.91 19.8-4.91 31.8 0 9.68 1.48 18.7 4.44 27.1 2.96 8.42 7.22 15.7 12.8 21.9 5.58 6.16 12.4 11 20.4 14.5 8.03 3.51 17.1 5.27 27.1 5.27" clip-path="url(#w)"/><path transform="matrix(.353 0 0 -.353 460 361)" d="m0 0v139h14.5c3.47 0 5.66-1.7 6.58-5.08l1.9-15.1c6.03 6.65 12.8 12 20.2 16.1 7.45 4.12 16.1 6.18 25.8 6.18 7.56 0 14.2-1.26 20-3.77 5.81-2.5 10.7-6.06 14.5-10.7 3.89-4.61 6.84-10.2 8.85-16.6 2-6.48 3-13.6 3-21.5v-88.4h-24.4v88.4c0 10.5-2.4 18.6-7.21 24.4-4.79 5.81-12.1 8.72-22 8.72-7.21 0-14-1.74-20.2-5.21-6.26-3.47-12-8.18-17.3-14.1v-102z" clip-path="url(#v)"/><path transform="matrix(.353 0 0 -.353 543 320)" d="m0 0c-1.09-2.03-2.77-3.04-5.04-3.04-1.39 0-2.94 0.5-4.68 1.5-1.73 1.02-3.86 2.15-6.38 3.37-2.5 1.22-5.48 2.36-8.95 3.41-3.47 1.07-7.6 1.6-12.4 1.6-4.1 0-7.8-0.534-11.1-1.6-3.3-1.05-6.11-2.49-8.45-4.31-2.32-1.83-4.1-3.96-5.34-6.38-1.23-2.4-1.84-5.03-1.84-7.85 0-3.56 1.02-6.54 3.07-8.92 2.07-2.39 4.79-4.44 8.18-6.18 3.38-1.72 7.21-3.24 11.5-4.57 4.29-1.32 8.7-2.73 13.2-4.24 4.52-1.52 8.92-3.19 13.2-5.01 4.29-1.83 8.13-4.11 11.5-6.84 3.38-2.74 6.09-6.1 8.15-10.1 2.04-3.97 3.07-8.73 3.07-14.3 0-6.39-1.15-12.3-3.44-17.8-2.27-5.44-5.64-10.1-10.1-14.1-4.48-3.96-9.95-7.1-16.4-9.38-6.48-2.27-14-3.41-22.5-3.41-9.69 0-18.5 1.57-26.3 4.71-7.84 3.16-14.5 7.21-20 12.2l5.78 9.32c0.709 1.18 1.57 2.09 2.57 2.74 1.02 0.644 2.36 0.969 4.01 0.969 1.62 0 3.35-0.65 5.18-1.94 1.84-1.27 4.06-2.69 6.64-4.24 2.61-1.56 5.75-2.99 9.45-4.27 3.71-1.27 8.36-1.9 13.9-1.9 4.74 0 8.89 0.609 12.5 1.84 3.56 1.24 6.53 2.91 8.92 5.01 2.38 2.11 4.14 4.54 5.28 7.28 1.14 2.74 1.7 5.66 1.7 8.78 0 3.82-1.03 7-3.07 9.52-2.05 2.51-4.77 4.66-8.15 6.44-3.39 1.78-7.24 3.32-11.6 4.64-4.34 1.34-8.77 2.72-13.3 4.17-4.52 1.47-8.95 3.14-13.3 5.01-4.34 1.87-8.21 4.22-11.6 7.05-3.36 2.82-6.08 6.32-8.15 10.5-2.05 4.16-3.07 9.2-3.07 15.1 0 5.29 1.08 10.4 3.27 15.3 2.2 4.89 5.39 9.19 9.58 12.9 4.21 3.71 9.37 6.66 15.5 8.85 6.12 2.18 13.1 3.27 21 3.27 9.12 0 17.3-1.43 24.6-4.31 7.28-2.87 13.6-6.83 18.9-11.9z" clip-path="url(#u)"/><path transform="matrix(.353 0 0 -.353 591 321)" d="m0 0c-0.733-1-1.47-1.79-2.2-2.34-0.734-0.534-1.79-0.801-3.14-0.801-1.38 0-2.87 0.568-4.47 1.7-1.59 1.15-3.61 2.41-6.08 3.77-2.47 1.38-5.47 2.64-8.98 3.77-3.52 1.14-7.84 1.7-13 1.7-6.74 0-12.7-1.22-17.9-3.64-5.21-2.4-9.58-5.89-13.1-10.5-3.52-4.56-6.17-10.1-7.95-16.6-1.79-6.48-2.67-13.7-2.67-21.8 0-8.4 0.951-15.9 2.87-22.4 1.94-6.53 4.62-12 8.08-16.4 3.47-4.43 7.7-7.81 12.7-10.2 4.98-2.32 10.6-3.47 16.8-3.47 5.92 0 10.8 0.703 14.6 2.1 3.85 1.42 7.06 3 9.62 4.74 2.56 1.74 4.65 3.3 6.28 4.71 1.64 1.42 3.29 2.14 4.94 2.14 2.09 0 3.65-0.786 4.68-2.34l6.84-8.88c-6.04-7.41-13.6-12.8-22.6-16.3-9.04-3.4-18.6-5.11-28.6-5.11-8.67 0-16.7 1.59-24.2 4.77-7.44 3.21-13.9 7.83-19.4 13.9-5.48 6.08-9.8 13.5-13 22.4-3.14 8.86-4.71 19-4.71 30.3 0 10.3 1.44 19.9 4.31 28.6 2.87 8.76 7.06 16.3 12.6 22.7 5.52 6.34 12.3 11.3 20.5 14.9 8.15 3.56 17.5 5.34 28 5.34 9.68 0 18.3-1.59 25.7-4.74 7.5-3.14 14.1-7.58 19.9-13.3z" clip-path="url(#t)"/><path transform="matrix(.353 0 0 -.353 603 361)" d="m0 0v202h24.4v-81.6c5.94 6.29 12.5 11.3 19.7 15.1 7.21 3.78 15.5 5.68 24.9 5.68 7.56 0 14.2-1.26 20-3.77 5.81-2.5 10.7-6.06 14.5-10.7 3.89-4.61 6.84-10.2 8.85-16.6 2-6.48 3.01-13.6 3.01-21.5v-88.4h-24.4v88.4c0 10.5-2.4 18.6-7.21 24.4-4.79 5.81-12.1 8.72-22 8.72-7.21 0-13.9-1.74-20.2-5.21-6.26-3.47-12-8.18-17.3-14.1v-102z" clip-path="url(#s)"/><path transform="matrix(.353 0 0 -.353 671 356)" d="m0 0c4.29 0 8.22 0.434 11.8 1.3 3.56 0.867 6.91 2.1 10 3.7 3.15 1.6 6.18 3.54 9.05 5.81 2.87 2.29 5.68 4.89 8.42 7.81v28.9c-11.2-0.385-20.8-1.29-28.6-2.71-7.86-1.4-14.3-3.26-19.2-5.54-4.93-2.27-8.51-4.97-10.8-8.08-2.23-3.1-3.34-6.56-3.34-10.4 0-3.66 0.584-6.8 1.77-9.45 1.2-2.65 2.81-4.82 4.81-6.51 2-1.7 4.38-2.93 7.11-3.71 2.74-0.786 5.71-1.17 8.92-1.17m63.3-14.9h-10.8c-2.39 0-4.31 0.367-5.78 1.1-1.45 0.736-2.4 2.28-2.84 4.64l-2.74 12.9c-3.66-3.3-7.21-6.24-10.7-8.85-3.47-2.6-7.14-4.8-11-6.58-3.83-1.79-7.91-3.13-12.3-4.04-4.34-0.91-9.16-1.37-14.5-1.37-5.39 0-10.4 0.761-15.1 2.27-4.7 1.51-8.78 3.77-12.3 6.78-3.47 3.02-6.24 6.85-8.31 11.5-2.05 4.61-3.07 10.1-3.07 16.4 0 5.48 1.5 10.7 4.51 15.8 3.02 5.08 7.89 9.56 14.6 13.5 6.72 3.94 15.5 7.16 26.4 9.68 10.9 2.51 24.2 3.95 39.9 4.31v10.8c0 10.8-2.3 19-6.91 24.5-4.61 5.52-11.4 8.28-20.5 8.28-5.94 0-11-0.76-15-2.27-4.06-1.49-7.57-3.19-10.6-5.08-2.96-1.87-5.51-3.56-7.65-5.08-2.14-1.49-4.27-2.24-6.38-2.24-1.65 0-3.09 0.434-4.31 1.3-1.23 0.867-2.2 1.94-2.94 3.2l-4.41 7.81c7.68 7.39 15.9 12.9 24.8 16.6 8.86 3.67 18.7 5.51 29.5 5.51 7.76 0 14.7-1.29 20.7-3.84 6.03-2.56 11.1-6.13 15.2-10.7 4.12-4.57 7.22-10.1 9.32-16.6 2.08-6.48 3.14-13.6 3.14-21.4z" clip-path="url(#r)"/><path transform="matrix(.353 0 0 -.353 709 361)" d="m0 0v118l-15.3 1.8c-1.94 0.443-3.52 1.14-4.74 2.1-1.23 0.951-1.84 2.35-1.84 4.17v10h21.9v13.4c0 7.95 1.11 15 3.34 21.2 2.25 6.16 5.44 11.4 9.58 15.6 4.16 4.25 9.17 7.46 15 9.65 5.85 2.2 12.4 3.3 19.7 3.3 6.21 0 12-0.917 17.3-2.74l-0.568-12.2c-0.093-1.83-0.868-2.93-2.34-3.31-1.45-0.359-3.5-0.534-6.14-0.534h-4.24c-4.21 0-8.03-0.552-11.5-1.64-3.43-1.09-6.38-2.87-8.85-5.34-2.45-2.47-4.34-5.73-5.68-9.75-1.32-4.01-1.97-8.98-1.97-14.9v-12.7h40.1v-17.7h-39.3v-118z" clip-path="url(#q)"/><path transform="matrix(.353 0 0 -.353 756 362)" d="m0 0c-11 0-19.4 3.06-25.3 9.18-5.88 6.12-8.82 14.9-8.82 26.4v84.9h-16.7c-1.45 0-2.67 0.434-3.67 1.3-1 0.87-1.5 2.21-1.5 4.04v9.72l22.7 2.87 5.61 42.9c0.175 1.38 0.767 2.5 1.77 3.37 1 0.868 2.28 1.3 3.84 1.3h12.3v-47.8h39.7v-17.7h-39.7v-83.3c0-5.84 1.41-10.2 4.24-13 2.85-2.83 6.51-4.24 11-4.24 2.54 0 4.74 0.344 6.61 1.04 1.89 0.684 3.52 1.44 4.88 2.27 1.38 0.818 2.55 1.57 3.51 2.24 0.951 0.684 1.8 1.04 2.54 1.04 1.27 0 2.4-0.77 3.41-2.31l7.15-11.7c-4.21-3.94-9.28-7.04-15.2-9.28-5.93-2.22-12-3.34-18.4-3.34" clip-path="url(#p)"/><path transform="matrix(.353 0 0 -.353 854 361)" d="m0 0h-26.7v89.3h-106v-89.3h-26.7v196h26.7v-87.6h106v87.6h26.7z" clip-path="url(#o)"/><path transform="matrix(.353 0 0 -.353 882 322)" d="m0 0h9.98c3.47 0 6.23 0.417 8.28 1.27 2.07 0.87 4.02 2.36 5.84 4.48l65.3 74c2 2.29 3.94 3.92 5.81 4.88 1.87 0.951 4.26 1.44 7.18 1.44h22.6l-74.8-84.5c-1.92-2.12-3.72-3.91-5.41-5.38-1.7-1.45-3.5-2.63-5.41-3.54 2.55-0.828 4.79-2.06 6.71-3.71 1.91-1.65 3.92-3.7 6.04-6.14l78.1-93h-23c-1.74 0-3.21 0.135-4.41 0.402-1.19 0.284-2.2 0.649-3.07 1.1-0.867 0.468-1.67 1.05-2.4 1.77-0.718 0.733-1.43 1.51-2.17 2.34l-67.8 78c-1 1.08-1.94 2.01-2.8 2.77-0.868 0.776-1.87 1.44-3 2-1.14 0.551-2.46 0.942-3.97 1.17-1.52 0.216-3.36 0.333-5.54 0.333h-12.1v-89.9h-26.4v196h26.4z" clip-path="url(#m)"/><path transform="matrix(.353 0 0 -.353 950 335)" d="m0 0h73.3l-30.8 79.8c-2 4.94-3.97 11.1-5.88 18.5-1-3.74-1.99-7.2-2.94-10.4-0.962-3.14-1.9-5.9-2.84-8.28zm129-72.9h-20.6c-2.36 0-4.27 0.585-5.74 1.77-1.47 1.2-2.56 2.71-3.27 4.54l-18.4 47.4h-88.1l-18.4-47.4c-0.651-1.65-1.75-3.12-3.3-4.41-1.54-1.27-3.46-1.9-5.74-1.9h-20.5l78.5 196h27z" clip-path="url(#l)"/></g><g fill="currentColor"><path transform="matrix(.353 0 0 -.353 149 156)" d="m0 0h264l-101 275c-4.58 12.2-9.73 26.5-15.5 42.9-5.33 16.8-10.7 34.9-16 54.4-5.33-19.5-10.7-37.6-16-54.4-4.96-16.8-9.92-31.5-14.9-44.1zm536-312h-119c-13.3 0-24.4 3.24-33.2 9.72-8.39 6.86-14.5 15.3-18.3 25.2l-61.8 169h-343l-61.8-169c-3.06-8.77-9.16-16.8-18.3-24-8.78-7.24-19.6-10.9-32.6-10.9h-120l325 827h157z" clip-path="url(#k)"/><path transform="matrix(.353 0 0 -.353 525 27.9)" d="m0 0c-4.19-8.39-9.15-14.3-14.9-17.7-5.33-3.44-11.8-5.15-19.5-5.15-7.63 0-16.2 2.86-25.7 8.58-9.53 6.1-20.8 12.8-33.8 20-13 7.25-28.2 13.7-45.8 19.5-17.2 6.1-37.6 9.15-61.2 9.15-21.4 0-40.1-2.66-56.1-8.01-15.6-4.96-29-12-40-21.2-10.7-9.16-18.7-20.2-24-33.2-5.34-12.6-8-26.5-8-41.8 0-19.5 5.33-35.7 16-48.6 11.1-13 25.6-24 43.5-33.2 17.9-9.16 38.3-17.4 61.2-24.6 22.9-7.24 46.2-15.1 69.8-23.5 24-8.01 47.5-17.5 70.4-28.6 22.9-10.7 43.3-24.4 61.2-41.2 17.9-16.4 32.2-36.6 42.9-60.6 11.1-24 16.6-53.2 16.6-87.5 0-37.4-6.48-72.5-19.4-105-12.6-32.4-31.3-60.8-56.1-85.2-24.4-24-54.4-43.1-89.8-57.2-35.5-13.7-76.1-20.6-122-20.6-26.3 0-52.3 2.67-77.8 8.01-25.6 4.96-50.2 12.2-73.8 21.7-23.3 9.53-45.2 21-65.8 34.3-20.2 13.4-38.3 28.2-54.4 44.6l44.6 73.8c4.2 5.33 9.16 9.72 14.9 13.2 6.1 3.82 12.8 5.72 20 5.72 9.53 0 19.8-4 30.9-12 11.1-7.63 24-16.2 38.9-25.7 15.3-9.53 33-18.3 53.2-26.3 20.6-7.63 45.2-11.4 73.8-11.4 43.9 0 77.8 10.3 102 30.9 24 21 36 50.9 36 89.8 0 21.7-5.54 39.5-16.6 53.2-10.7 13.7-25 25.2-42.9 34.3-17.9 9.53-38.3 17.5-61.2 24-22.9 6.49-46.2 13.5-69.8 21.2-23.7 7.63-46.9 16.8-69.8 27.5-22.9 10.7-43.3 24.6-61.2 41.8-17.9 17.2-32.4 38.5-43.5 64.1-10.7 25.9-16 57.8-16 95.6 0 30.1 5.91 59.5 17.7 88.1 12.2 28.6 29.8 54 52.6 76.1 23.3 22.1 51.7 39.9 85.2 53.2 33.6 13.3 71.9 20 115 20 48.8 0 93.8-7.63 135-22.9 41.2-15.3 76.3-36.6 105-64.1z" clip-path="url(#j)"/><path transform="matrix(.353 0 0 -.353 650 270)" d="m0 0c-50.7 0-89.8 14.3-117 42.9-27.5 29-41.2 68.8-41.2 120v328h-59.5c-7.63 0-14.3 2.48-20 7.43-5.34 4.96-8.01 12.4-8.01 22.3v56.1l94.4 15.5 29.8 160c1.53 7.63 4.96 13.5 10.3 17.7 5.72 4.19 12.8 6.3 21.2 6.3h73.2v-185h154v-101h-154v-318c0-18.3 4.58-32.6 13.7-42.9 9.16-10.3 21.4-15.5 36.6-15.5 8.76 0 16 0.951 21.7 2.86 6.1 2.29 11.3 4.57 15.4 6.86 4.58 2.29 8.59 4.39 12 6.3 3.43 2.29 6.86 3.43 10.3 3.43 4.2 0 7.63-1.14 10.3-3.43 2.67-1.9 5.54-4.96 8.58-9.15l42.3-68.7c-20.6-17.2-44.2-30.1-70.9-38.9-26.7-8.78-54.4-13.2-83-13.2" clip-path="url(#i)"/><path transform="matrix(.353 0 0 -.353 809 156)" d="m0 0h264l-101 275c-4.58 12.2-9.73 26.5-15.4 42.9-5.34 16.8-10.7 34.9-16 54.4-5.34-19.5-10.7-37.6-16-54.4-4.96-16.8-9.92-31.5-14.9-44.1zm536-312h-119c-13.3 0-24.4 3.24-33.2 9.72-8.39 6.86-14.5 15.3-18.3 25.2l-61.8 169h-343l-61.8-169c-3.05-8.77-9.16-16.8-18.3-24-8.78-7.24-19.6-10.9-32.6-10.9h-120l325 827h157z" clip-path="url(#h)"/></g><g fill="#e43122"><path transform="matrix(.353 0 0 -.353 -151 11.5)" d="m0 0-353-185s333-262 199-591c173 22.8 462 445 154 776" clip-path="url(#g)"/><path transform="matrix(.353 0 0 -.353 -233 -36.8)" d="m0 0-466-224s560-375 434-725c122 77.9 191 320-220 682 165 83.3 262 132 262 132l47-43 90 53.7z" clip-path="url(#f)"/><path transform="matrix(.353 0 0 -.353 -367 -67.6)" d="m0 0-557-247s975-553 800-819c0 0 349 169-518 809 197 102 270 128 270 128l67.2-52.4 122 67.2z" clip-path="url(#e)"/></g><path transform="matrix(.353 0 0 -.353 71.1 -98.4)" d="m0 0s-193-416-768-96.7c293-226 494-481 201-900 188 126 459 269 567 997" clip-path="url(#d)" fill="currentColor"/><path transform="matrix(.353 0 0 -.353 -4.69 -113)" d="m0 0-60.4 71.2 114 90-247 8.06-207-145 49.1-0.485 20.7-54.6s5.38-12.1-4.03-24.2c2.69-12.1 32.2-103 32.2-103l22.8-2.69-36.3 120-33.8 65.3 84.8-0.844-16.1-99.4s14.8 5.38 26.9 10.7c-18.8-80.6 78.5-153 157-136 106 22.8 126 140 67.2 205z" clip-path="url(#b)" fill="currentColor"/></g></svg>
