<svg version="1.1" viewBox="0 0 64 64" xmlns="http://www.w3.org/2000/svg"><g transform="translate(0 6.1252)" fill="currentColor" opacity=".75"><g transform="translate(16 2.1073)"><g opacity=".45" stroke-width=".56491" aria-label="?"><path d="m14.585 22.126q-0.01471-0.52961-0.01471-0.79441 0-1.5594 0.44134-2.6922 0.32365-0.85326 1.0445-1.7212 0.52961-0.63259 1.8978-1.8389 1.3829-1.221 1.7948-1.9419t0.41192-1.5741q0-1.5447-1.2063-2.7069-1.2063-1.1769-2.957-1.1769-1.6918 0-2.8246 1.0592-1.1328 1.0592-1.4858 3.31l-2.7216-0.32365q0.36778-3.0158 2.1773-4.6194 1.8242-1.6035 4.8106-1.6035 3.1629 0 5.046 1.7212 1.883 1.7212 1.883 4.1633 0 1.4123-0.66201 2.6039t-2.5892 2.8981q-1.2946 1.1475-1.6918 1.6918t-0.58845 1.2505q-0.19125 0.70614-0.22067 2.295zm-0.16182 5.3108v-3.0158h3.0158v3.0158z"/></g><g><path d="m16 12c-3.314 0-6 2.686-6 6s2.686 6 6 6 6-2.686 6-6-2.686-6-6-6zm0 11c-2.761 0-5-2.239-5-5s2.239-5 5-5 5 2.239 5 5-2.239 5-5 5z"/><path d="m28 9c-1.105 0-2 0.895-2 2s0.895 2 2 2 2-0.895 2-2-0.895-2-2-2zm0 3c-0.552 0-1-0.448-1-1s0.448-1 1-1 1 0.448 1 1-0.448 1-1 1z"/><path d="m16 9c-4.971 0-9 4.029-9 9s4.029 9 9 9 9-4.029 9-9-4.029-9-9-9zm0 17c-4.418 0-8-3.582-8-8s3.582-8 8-8 8 3.582 8 8-3.582 8-8 8z"/><path d="m30 7h-7v-2c0-1.105-0.895-2-2-2h-10c-1.105 0-2 0.895-2 2v2h-7c-1.105 0-2 0.895-2 2v18c0 1.105 0.895 2 2 2h28c1.105 0 2-0.895 2-2v-18c0-1.105-0.895-2-2-2zm1 19c0 1.105-0.895 2-2 2h-26c-1.105 0-2-0.895-2-2v-16c0-1.105 0.895-2 2-2h7v-2c0-1.105 0.895-2 2-2h8c1.105 0 2 0.895 2 2v2h7c1.105 0 2 0.895 2 2z"/></g></g><g aria-label="Bild folgt in Kürze"><path d="m16.98 38.856v-5.7266h2.1484q0.65625 0 1.0508 0.17578 0.39844 0.17188 0.62109 0.53516 0.22656 0.35938 0.22656 0.75391 0 0.36719-0.19922 0.69141t-0.60156 0.52344q0.51953 0.15234 0.79688 0.51953 0.28125 0.36719 0.28125 0.86719 0 0.40234-0.17188 0.75-0.16797 0.34375-0.41797 0.53125t-0.62891 0.28516q-0.375 0.09375-0.92188 0.09375zm0.75781-3.3203h1.2383q0.50391 0 0.72266-0.06641 0.28906-0.08594 0.43359-0.28516 0.14844-0.19922 0.14844-0.5 0-0.28516-0.13672-0.5-0.13672-0.21875-0.39062-0.29688-0.25391-0.082028-0.87109-0.082028h-1.1445zm0 2.6445h1.4258q0.36719 0 0.51562-0.02734 0.26172-0.04687 0.4375-0.15625 0.17578-0.10938 0.28906-0.31641 0.11328-0.21094 0.11328-0.48438 0-0.32031-0.16406-0.55469-0.16406-0.23828-0.45703-0.33203-0.28906-0.09766-0.83594-0.09766h-1.3242z"/><path d="m22.262 33.938v-0.80859h0.70312v0.80859zm0 4.918v-4.1484h0.70312v4.1484z"/><path d="m24.02 38.856v-5.7266h0.70312v5.7266z"/><path d="m28.504 38.856v-0.52344q-0.39453 0.61719-1.1602 0.61719-0.49609 0-0.91406-0.27344-0.41406-0.27344-0.64453-0.76172-0.22656-0.49219-0.22656-1.1289 0-0.62109 0.20703-1.125 0.20703-0.50781 0.62109-0.77734 0.41406-0.26953 0.92578-0.26953 0.375 0 0.66797 0.16016 0.29297 0.15625 0.47656 0.41016v-2.0547h0.69922v5.7266zm-2.2227-2.0703q0 0.79688 0.33594 1.1914 0.33594 0.39453 0.79297 0.39453 0.46094 0 0.78125-0.375 0.32422-0.37891 0.32422-1.1523 0-0.85156-0.32812-1.25-0.32812-0.39844-0.80859-0.39844-0.46875 0-0.78516 0.38281-0.3125 0.38281-0.3125 1.207z"/><path d="m32.652 38.856v-3.6016h-0.62109v-0.54688h0.62109v-0.44141q0-0.41797 0.07422-0.62109 0.10156-0.27344 0.35547-0.44141 0.25781-0.17188 0.71875-0.17188 0.29688 0 0.65625 0.07031l-0.10547 0.61328q-0.21875-0.03906-0.41406-0.03906-0.32031 0-0.45312 0.13672-0.13281 0.13672-0.13281 0.51172v0.38281h0.80859v0.54688h-0.80859v3.6016z"/><path d="m34.445 36.782q0-1.1523 0.64062-1.707 0.53516-0.46094 1.3047-0.46094 0.85547 0 1.3984 0.5625 0.54297 0.55859 0.54297 1.5469 0 0.80078-0.24219 1.2617-0.23828 0.45703-0.69922 0.71094-0.45703 0.25391-1 0.25391-0.87109 0-1.4102-0.55859-0.53516-0.55859-0.53516-1.6094zm0.72266 0q0 0.79688 0.34766 1.1953 0.34766 0.39453 0.875 0.39453 0.52344 0 0.87109-0.39844 0.34766-0.39844 0.34766-1.2148 0-0.76953-0.35156-1.1641-0.34766-0.39844-0.86719-0.39844-0.52734 0-0.875 0.39453-0.34766 0.39453-0.34766 1.1914z"/><path d="m39.141 38.856v-5.7266h0.70312v5.7266z"/><path d="m40.805 39.2 0.68359 0.10156q0.04297 0.31641 0.23828 0.46094 0.26172 0.19531 0.71484 0.19531 0.48828 0 0.75391-0.19531 0.26562-0.19531 0.35938-0.54688 0.05469-0.21484 0.05078-0.90234-0.46094 0.54297-1.1484 0.54297-0.85547 0-1.3242-0.61719-0.46875-0.61719-0.46875-1.4805 0-0.59375 0.21484-1.0938 0.21484-0.50391 0.62109-0.77734 0.41016-0.27344 0.96094-0.27344 0.73438 0 1.2109 0.59375v-0.5h0.64844v3.5859q0 0.96875-0.19922 1.3711-0.19531 0.40625-0.625 0.64062-0.42578 0.23438-1.0508 0.23438-0.74219 0-1.1992-0.33594-0.45703-0.33203-0.44141-1.0039zm0.58203-2.4922q0 0.81641 0.32422 1.1914 0.32422 0.375 0.8125 0.375 0.48438 0 0.8125-0.37109 0.32812-0.375 0.32812-1.1719 0-0.76172-0.33984-1.1484-0.33594-0.38672-0.8125-0.38672-0.46875 0-0.79688 0.38281-0.32812 0.37891-0.32812 1.1289z"/><path d="m46.918 38.227 0.10156 0.62109q-0.29688 0.0625-0.53125 0.0625-0.38281 0-0.59375-0.12109-0.21094-0.12109-0.29688-0.31641-0.08594-0.19922-0.08594-0.83203v-2.3867h-0.51562v-0.54688h0.51562v-1.0273l0.69922-0.42188v1.4492h0.70703v0.54688h-0.70703v2.4258q0 0.30078 0.03516 0.38672 0.03906 0.08594 0.12109 0.13672 0.08594 0.05078 0.24219 0.05078 0.11719 0 0.30859-0.02734z"/><path d="m17.594 41.631v-0.80859h0.70312v0.80859zm0 4.918v-4.1484h0.70312v4.1484z"/><path d="m19.367 46.549v-4.1484h0.63281v0.58984q0.45703-0.68359 1.3203-0.68359 0.375 0 0.6875 0.13672 0.31641 0.13281 0.47266 0.35156t0.21875 0.51953q0.03906 0.19531 0.03906 0.68359v2.5508h-0.70312v-2.5234q0-0.42969-0.08203-0.64062-0.08203-0.21484-0.29297-0.33984-0.20703-0.12891-0.48828-0.12891-0.44922 0-0.77734 0.28516-0.32422 0.28516-0.32422 1.082v2.2656z"/><path d="m26.098 46.549v-5.7266h0.75781v2.8398l2.8438-2.8398h1.0273l-2.4023 2.3203 2.5078 3.4062h-1l-2.0391-2.8984-0.9375 0.91406v1.9844z"/><path d="m34.094 46.549v-0.60938q-0.48438 0.70312-1.3164 0.70312-0.36719 0-0.6875-0.14062-0.31641-0.14062-0.47266-0.35156-0.15234-0.21484-0.21484-0.52344-0.04297-0.20703-0.04297-0.65625v-2.5703h0.70313v2.3008q0 0.55078 0.04297 0.74219 0.06641 0.27734 0.28125 0.4375 0.21484 0.15625 0.53125 0.15625 0.31641 0 0.59375-0.16016 0.27734-0.16406 0.39062-0.44141 0.11719-0.28125 0.11719-0.8125v-2.2227h0.70312v4.1484zm-2.1484-4.9609v-0.80078h0.73438v0.80078zm1.457 0v-0.80078h0.73438v0.80078z"/><path d="m35.816 46.549v-4.1484h0.63281v0.62891q0.24219-0.44141 0.44531-0.58203 0.20703-0.14062 0.45312-0.14062 0.35547 0 0.72266 0.22656l-0.24219 0.65234q-0.25781-0.15234-0.51562-0.15234-0.23047 0-0.41406 0.14062-0.18359 0.13672-0.26172 0.38281-0.11719 0.375-0.11719 0.82031v2.1719z"/><path d="m38.117 46.549v-0.57031l2.6406-3.0312q-0.44922 0.02344-0.79297 0.02344h-1.6914v-0.57031h3.3906v0.46484l-2.2461 2.6328-0.43359 0.48047q0.47266-0.03516 0.88672-0.03516h1.918v0.60547z"/><path d="m45.328 45.213 0.72656 0.08984q-0.17188 0.63672-0.63672 0.98828-0.46484 0.35156-1.1875 0.35156-0.91016 0-1.4453-0.55859-0.53125-0.5625-0.53125-1.5742 0-1.0469 0.53906-1.625 0.53906-0.57812 1.3984-0.57812 0.83203 0 1.3594 0.56641 0.52734 0.56641 0.52734 1.5938 0 0.0625-0.0039 0.1875h-3.0938q0.03906 0.68359 0.38672 1.0469 0.34766 0.36328 0.86719 0.36328 0.38672 0 0.66016-0.20312 0.27344-0.20312 0.43359-0.64844zm-2.3086-1.1367h2.3164q-0.04687-0.52344-0.26562-0.78516-0.33594-0.40625-0.87109-0.40625-0.48438 0-0.81641 0.32422-0.32812 0.32422-0.36328 0.86719z"/></g></g></svg>