<?xml version="1.0" encoding="UTF-8" standalone="no"?>
<svg
   viewBox="0 0 64 64"
   version="1.1"
   id="svg12"
   sodipodi:docname="product-placeholder.svg"
   inkscape:version="1.1.1 (3bf5ae0d25, 2021-09-20)"
   xmlns:inkscape="http://www.inkscape.org/namespaces/inkscape"
   xmlns:sodipodi="http://sodipodi.sourceforge.net/DTD/sodipodi-0.dtd"
   xmlns="http://www.w3.org/2000/svg"
   xmlns:svg="http://www.w3.org/2000/svg">
  <defs
     id="defs16" />
  <sodipodi:namedview
     id="namedview14"
     pagecolor="#ffffff"
     bordercolor="#666666"
     borderopacity="1.0"
     inkscape:pageshadow="2"
     inkscape:pageopacity="0.0"
     inkscape:pagecheckerboard="false"
     showgrid="false"
     inkscape:zoom="13.640625"
     inkscape:cx="11.069874"
     inkscape:cy="51.463917"
     inkscape:window-width="3840"
     inkscape:window-height="2066"
     inkscape:window-x="3829"
     inkscape:window-y="-11"
     inkscape:window-maximized="1"
     inkscape:current-layer="svg12" />
  <g
     id="g64385"
     transform="translate(0,6.1251615)"
     inkscape:label="root"
     style="opacity:0.75">
    <g
       id="g28254"
       transform="translate(16,2.1073362)"
       inkscape:label="kamera"
       style="opacity:1">
      <g
         fill="#1c1c1c"
         id="g10"
         inkscape:label="kamera_icon"
         style="fill:#000000">
        <path
           d="m 16,12 c -3.314,0 -6,2.686 -6,6 0,3.314 2.686,6 6,6 3.314,0 6,-2.686 6,-6 0,-3.314 -2.686,-6 -6,-6 z m 0,11 c -2.761,0 -5,-2.239 -5,-5 0,-2.761 2.239,-5 5,-5 2.761,0 5,2.239 5,5 0,2.761 -2.239,5 -5,5 z"
           id="path2"
           style="fill:#000000" />
        <path
           d="m 28,9 c -1.105,0 -2,0.895 -2,2 0,1.105 0.895,2 2,2 1.105,0 2,-0.895 2,-2 0,-1.105 -0.895,-2 -2,-2 z m 0,3 c -0.552,0 -1,-0.448 -1,-1 0,-0.552 0.448,-1 1,-1 0.552,0 1,0.448 1,1 0,0.552 -0.448,1 -1,1 z"
           id="path4"
           style="fill:#000000" />
        <path
           d="m 16,9 c -4.971,0 -9,4.029 -9,9 0,4.971 4.029,9 9,9 4.971,0 9,-4.029 9,-9 0,-4.971 -4.029,-9 -9,-9 z m 0,17 c -4.418,0 -8,-3.582 -8,-8 0,-4.418 3.582,-8 8,-8 4.418,0 8,3.582 8,8 0,4.418 -3.582,8 -8,8 z"
           id="path6"
           style="fill:#000000" />
        <path
           d="M 30,7 H 23 V 5 C 23,3.895 22.105,3 21,3 H 11 C 9.895,3 9,3.895 9,5 V 7 H 2 C 0.895,7 0,7.895 0,9 v 18 c 0,1.105 0.895,2 2,2 h 28 c 1.105,0 2,-0.895 2,-2 V 9 C 32,7.895 31.105,7 30,7 Z m 1,19 c 0,1.105 -0.895,2 -2,2 H 3 C 1.895,28 1,27.105 1,26 V 10 C 1,8.895 1.895,8 3,8 h 7 V 7 6 c 0,-1.105 0.895,-2 2,-2 h 8 c 1.105,0 2,0.895 2,2 v 1 1 h 7 c 1.105,0 2,0.895 2,2 z"
           id="path8"
           style="fill:#000000" />
      </g>
      <g
         aria-label="?"
         id="text21549"
         style="font-size:30.1288px;line-height:1.25;opacity:0.45;stroke-width:0.564913"
         inkscape:label="fragezeichen_pfad">
        <path
           d="m 14.584655,22.125564 q -0.01471,-0.529607 -0.01471,-0.794411 0,-1.559401 0.441339,-2.692173 0.32365,-0.853257 1.044505,-1.721226 0.529608,-0.632587 1.897761,-1.838916 1.382865,-1.22104 1.794782,-1.941895 0.411917,-0.720855 0.411917,-1.574112 0,-1.544689 -1.206329,-2.7068844 -1.206329,-1.1769062 -2.956977,-1.1769062 -1.691802,0 -2.824574,1.0592156 -1.132773,1.0592156 -1.485845,3.310049 L 8.9649277,11.724656 q 0.3677832,-3.0158227 2.1772763,-4.6193574 1.824205,-1.6035347 4.810604,-1.6035347 3.162936,0 5.045986,1.7212253 1.88305,1.7212254 1.88305,4.1633058 0,1.412287 -0.66201,2.603905 -0.66201,1.191618 -2.589194,2.898132 -1.294596,1.147483 -1.691802,1.691802 -0.397206,0.544319 -0.588453,1.250463 -0.191248,0.706144 -0.22067,2.294967 z m -0.161825,5.31079 v -3.015823 h 3.015823 v 3.015823 z"
           style="font-family:Arial;-inkscape-font-specification:Arial;fill:#000000;fill-opacity:1;stroke:none"
           id="path78212" />
      </g>
      <text
         xml:space="preserve"
         style="font-style:normal;font-weight:normal;font-size:30.1288px;line-height:1.25;font-family:sans-serif;display:none;opacity:0.45;fill:#000000;fill-opacity:1;stroke:none;stroke-width:0.564913"
         x="7.6409082"
         y="27.436354"
         id="text78048"
         inkscape:label="fragezeichen"><tspan
           sodipodi:role="line"
           id="tspan78046"
           x="0"
           y="0"
           style="font-style:normal;font-variant:normal;font-weight:normal;font-stretch:normal;font-size:30.1288px;font-family:Arial;-inkscape-font-specification:Arial;stroke-width:0.564913">?</tspan></text>
    </g>
    <g
       aria-label="Bild folgt
in Kürze"
       id="text78060"
       style="font-size:8px;line-height:0.95;display:inline;opacity:1"
       inkscape:label="bild_in_kuerze_pfad">
      <path
         d="m 16.980469,38.855984 v -5.726563 h 2.148437 q 0.65625,0 1.050781,0.175781 0.398438,0.171875 0.621094,0.535157 0.226563,0.359375 0.226563,0.753906 0,0.367187 -0.199219,0.691406 -0.199219,0.324219 -0.601563,0.523438 0.519532,0.152343 0.796875,0.519531 0.28125,0.367187 0.28125,0.867187 0,0.402344 -0.171875,0.75 -0.167968,0.34375 -0.417968,0.53125 -0.25,0.1875 -0.628907,0.285157 -0.375,0.09375 -0.921875,0.09375 z m 0.757812,-3.320313 h 1.238281 q 0.503907,0 0.722657,-0.06641 0.289062,-0.08594 0.433593,-0.285156 0.148438,-0.199219 0.148438,-0.5 0,-0.285157 -0.136719,-0.5 Q 20.007812,33.965355 19.753906,33.88723 19.5,33.805202 18.882812,33.805202 h -1.144531 z m 0,2.644531 h 1.425781 q 0.367188,0 0.515625,-0.02734 0.261719,-0.04687 0.4375,-0.15625 0.175782,-0.109375 0.289063,-0.316407 0.113281,-0.210937 0.113281,-0.484375 0,-0.320312 -0.164062,-0.554687 -0.164063,-0.238281 -0.457032,-0.332031 -0.289062,-0.09766 -0.835937,-0.09766 h -1.324219 z"
         style="font-family:arial;-inkscape-font-specification:arial;text-align:center;text-anchor:middle"
         id="path78142" />
      <path
         d="m 22.261719,33.938015 v -0.808594 h 0.703125 v 0.808594 z m 0,4.917969 v -4.148438 h 0.703125 v 4.148438 z"
         style="font-family:arial;-inkscape-font-specification:arial;text-align:center;text-anchor:middle"
         id="path78144" />
      <path
         d="m 24.019531,38.855984 v -5.726563 h 0.703125 v 5.726563 z"
         style="font-family:arial;-inkscape-font-specification:arial;text-align:center;text-anchor:middle"
         id="path78146" />
      <path
         d="m 28.503906,38.855984 v -0.523438 q -0.394531,0.617188 -1.160156,0.617188 -0.496094,0 -0.914063,-0.273438 -0.414062,-0.273437 -0.644531,-0.761719 -0.226562,-0.492187 -0.226562,-1.128906 0,-0.621094 0.207031,-1.125 0.207031,-0.507812 0.621094,-0.777344 0.414062,-0.269531 0.925781,-0.269531 0.375,0 0.667969,0.160156 0.292968,0.15625 0.476562,0.410157 v -2.054688 h 0.699219 v 5.726563 z M 26.28125,36.785671 q 0,0.796875 0.335937,1.191406 0.335938,0.394532 0.792969,0.394532 0.460938,0 0.78125,-0.375 0.324219,-0.378907 0.324219,-1.152344 0,-0.851563 -0.328125,-1.25 -0.328125,-0.398438 -0.808594,-0.398438 -0.46875,0 -0.785156,0.382813 -0.3125,0.382812 -0.3125,1.207031 z"
         style="font-family:arial;-inkscape-font-specification:arial;text-align:center;text-anchor:middle"
         id="path78148" />
      <path
         d="M 32.652344,38.855984 V 35.254421 H 32.03125 v -0.546875 h 0.621094 V 34.26614 q 0,-0.417969 0.07422,-0.621094 0.101563,-0.273437 0.355469,-0.441406 0.257813,-0.171875 0.71875,-0.171875 0.296875,0 0.65625,0.07031 l -0.105469,0.613282 q -0.21875,-0.03906 -0.414062,-0.03906 -0.320313,0 -0.453125,0.136719 -0.132813,0.136719 -0.132813,0.511719 v 0.382812 h 0.808594 v 0.546875 h -0.808594 v 3.601563 z"
         style="font-family:arial;-inkscape-font-specification:arial;text-align:center;text-anchor:middle"
         id="path78150" />
      <path
         d="m 34.445312,36.781765 q 0,-1.152344 0.640625,-1.707031 0.535157,-0.460938 1.304688,-0.460938 0.855469,0 1.398437,0.5625 0.542969,0.558594 0.542969,1.546875 0,0.800781 -0.242187,1.261719 -0.238282,0.457031 -0.699219,0.710937 -0.457031,0.253907 -1,0.253907 -0.871094,0 -1.410156,-0.558594 -0.535157,-0.558594 -0.535157,-1.609375 z m 0.722657,0 q 0,0.796875 0.347656,1.195312 0.347656,0.394532 0.875,0.394532 0.523437,0 0.871094,-0.398438 0.347656,-0.398437 0.347656,-1.214844 0,-0.769531 -0.351563,-1.164062 -0.347656,-0.398438 -0.867187,-0.398438 -0.527344,0 -0.875,0.394532 -0.347656,0.394531 -0.347656,1.191406 z"
         style="font-family:arial;-inkscape-font-specification:arial;text-align:center;text-anchor:middle"
         id="path78152" />
      <path
         d="m 39.140625,38.855984 v -5.726563 h 0.703125 v 5.726563 z"
         style="font-family:arial;-inkscape-font-specification:arial;text-align:center;text-anchor:middle"
         id="path78154" />
      <path
         d="m 40.804687,39.199734 0.683594,0.101562 q 0.04297,0.316406 0.238281,0.460938 0.261719,0.195312 0.714844,0.195312 0.488281,0 0.753906,-0.195312 0.265625,-0.195313 0.359375,-0.546875 0.05469,-0.214844 0.05078,-0.902344 -0.460938,0.542969 -1.148438,0.542969 -0.855469,0 -1.324219,-0.617188 -0.46875,-0.617187 -0.46875,-1.480469 0,-0.59375 0.214844,-1.09375 0.214844,-0.503906 0.621094,-0.777343 0.410156,-0.273438 0.960937,-0.273438 0.734375,0 1.210938,0.59375 v -0.5 h 0.648437 v 3.585938 q 0,0.96875 -0.199218,1.371093 -0.195313,0.40625 -0.625,0.640625 -0.425782,0.234375 -1.050782,0.234375 -0.742187,0 -1.199218,-0.335937 -0.457032,-0.332031 -0.441407,-1.003906 z m 0.582032,-2.492188 q 0,0.816406 0.324218,1.191406 0.324219,0.375 0.8125,0.375 0.484375,0 0.8125,-0.371093 0.328125,-0.375 0.328125,-1.171875 0,-0.761719 -0.339843,-1.148438 -0.335938,-0.386719 -0.8125,-0.386719 -0.46875,0 -0.796875,0.382813 -0.328125,0.378906 -0.328125,1.128906 z"
         style="font-family:arial;-inkscape-font-specification:arial;text-align:center;text-anchor:middle"
         id="path78156" />
      <path
         d="m 46.917969,38.227077 0.101562,0.621094 q -0.296875,0.0625 -0.53125,0.0625 -0.382812,0 -0.59375,-0.121094 -0.210937,-0.121093 -0.296875,-0.316406 -0.08594,-0.199219 -0.08594,-0.832031 v -2.386719 h -0.515625 v -0.546875 h 0.515625 v -1.027344 l 0.699218,-0.421875 v 1.449219 h 0.707032 v 0.546875 h -0.707032 v 2.425781 q 0,0.300782 0.03516,0.386719 0.03906,0.08594 0.121093,0.136719 0.08594,0.05078 0.242188,0.05078 0.117187,0 0.308594,-0.02734 z"
         style="font-family:arial;-inkscape-font-specification:arial;text-align:center;text-anchor:middle"
         id="path78158" />
      <path
         d="m 17.59375,41.630622 v -0.808594 h 0.703125 v 0.808594 z m 0,4.917969 v -4.148438 h 0.703125 v 4.148438 z"
         style="font-family:arial;-inkscape-font-specification:arial;text-align:center;text-anchor:middle"
         id="path78160" />
      <path
         d="M 19.367187,46.548591 V 42.400153 H 20 v 0.589844 q 0.457031,-0.683594 1.320312,-0.683594 0.375,0 0.6875,0.136719 0.316407,0.132813 0.472657,0.351563 0.15625,0.21875 0.21875,0.519531 0.03906,0.195312 0.03906,0.683594 v 2.550781 h -0.703125 v -2.523438 q 0,-0.429687 -0.08203,-0.640625 -0.08203,-0.214843 -0.292969,-0.339843 -0.207031,-0.128907 -0.488281,-0.128907 -0.449219,0 -0.777344,0.285157 -0.324219,0.285156 -0.324219,1.082031 v 2.265625 z"
         style="font-family:arial;-inkscape-font-specification:arial;text-align:center;text-anchor:middle"
         id="path78162" />
      <path
         d="m 26.097656,46.548591 v -5.726563 h 0.757813 v 2.839844 l 2.84375,-2.839844 h 1.027343 l -2.402343,2.320313 2.507812,3.40625 h -1 l -2.039062,-2.898438 -0.9375,0.914063 v 1.984375 z"
         style="font-family:arial;-inkscape-font-specification:arial;text-align:center;text-anchor:middle"
         id="path78164" />
      <path
         d="m 34.09375,46.548591 v -0.609375 q -0.484375,0.703125 -1.316406,0.703125 -0.367188,0 -0.6875,-0.140625 -0.316407,-0.140625 -0.472657,-0.351563 -0.152343,-0.214843 -0.214843,-0.523437 -0.04297,-0.207031 -0.04297,-0.65625 V 42.400153 H 32.0625 v 2.300782 q 0,0.550781 0.04297,0.742187 0.06641,0.277344 0.28125,0.4375 0.214843,0.15625 0.53125,0.15625 0.316406,0 0.59375,-0.160156 0.277343,-0.164063 0.390625,-0.441406 0.117187,-0.28125 0.117187,-0.8125 v -2.222657 h 0.703125 v 4.148438 z m -2.148438,-4.960938 v -0.800781 h 0.734375 v 0.800781 z m 1.457032,0 v -0.800781 h 0.734375 v 0.800781 z"
         style="font-family:arial;-inkscape-font-specification:arial;text-align:center;text-anchor:middle"
         id="path78166" />
      <path
         d="m 35.816406,46.548591 v -4.148438 h 0.632813 v 0.628907 q 0.242187,-0.441407 0.445312,-0.582032 0.207031,-0.140625 0.453125,-0.140625 0.355469,0 0.722656,0.226563 l -0.242187,0.652344 q -0.257813,-0.152344 -0.515625,-0.152344 -0.230469,0 -0.414063,0.140625 -0.183593,0.136719 -0.261718,0.382812 -0.117188,0.375 -0.117188,0.820313 v 2.171875 z"
         style="font-family:arial;-inkscape-font-specification:arial;text-align:center;text-anchor:middle"
         id="path78168" />
      <path
         d="m 38.117187,46.548591 v -0.570313 l 2.640625,-3.03125 q -0.449218,0.02344 -0.792968,0.02344 h -1.691407 v -0.570313 h 3.390625 v 0.464844 l -2.246093,2.632813 -0.433594,0.480468 q 0.472656,-0.03516 0.886719,-0.03516 h 1.917968 v 0.605469 z"
         style="font-family:arial;-inkscape-font-specification:arial;text-align:center;text-anchor:middle"
         id="path78170" />
      <path
         d="m 45.328125,45.212653 0.726562,0.08984 q -0.171875,0.636719 -0.636718,0.988281 -0.464844,0.351563 -1.1875,0.351563 -0.910157,0 -1.445313,-0.558594 -0.53125,-0.5625 -0.53125,-1.574219 0,-1.046875 0.539063,-1.625 0.539062,-0.578125 1.398437,-0.578125 0.832031,0 1.359375,0.566407 0.527344,0.566406 0.527344,1.59375 0,0.0625 -0.0039,0.1875 h -3.09375 q 0.03906,0.683593 0.386718,1.046875 0.347657,0.363281 0.867188,0.363281 0.386719,0 0.660156,-0.203125 0.273438,-0.203125 0.433594,-0.648438 z m -2.308594,-1.136718 h 2.316406 q -0.04687,-0.523438 -0.265625,-0.785157 -0.335937,-0.40625 -0.871093,-0.40625 -0.484375,0 -0.816407,0.324219 -0.328125,0.324219 -0.363281,0.867188 z"
         style="font-family:arial;-inkscape-font-specification:arial;text-align:center;text-anchor:middle"
         id="path78172" />
    </g>
    <text
       xml:space="preserve"
       style="font-style:normal;font-weight:normal;font-size:8px;line-height:0.95;font-family:sans-serif;display:none;opacity:1;fill:#000000;fill-opacity:1;stroke:none"
       x="31.736328"
       y="38.855984"
       id="text78054"
       inkscape:label="bild_in_kuerze"><tspan
         sodipodi:role="line"
         id="tspan78050"
         x="0"
         y="0"
         style="font-style:normal;font-variant:normal;font-weight:normal;font-stretch:normal;font-size:8px;font-family:arial;-inkscape-font-specification:arial;text-align:center;text-anchor:middle">Bild folgt</tspan><tspan
         sodipodi:role="line"
         x="0"
         y="0"
         style="font-style:normal;font-variant:normal;font-weight:normal;font-stretch:normal;font-size:8px;font-family:arial;-inkscape-font-specification:arial;text-align:center;text-anchor:middle"
         id="tspan78052">in Kürze</tspan></text>
  </g>
</svg>
